<svg width="100" height="100" viewBox="0 0 100 100" fill="none" xmlns="http://www.w3.org/2000/svg">
<path d="M41.6667 79.1666C40.6931 79.1685 39.7496 78.8294 39 78.2082C38.5781 77.8585 38.2293 77.4289 37.9737 76.9441C37.7181 76.4593 37.5606 75.9289 37.5103 75.3831C37.46 74.8374 37.5178 74.2871 37.6805 73.7637C37.8432 73.2404 38.1075 72.7543 38.4583 72.3333L57.125 49.9999L39.125 27.6249C38.7789 27.1987 38.5204 26.7083 38.3645 26.1819C38.2085 25.6555 38.1581 25.1034 38.2162 24.5575C38.2743 24.0115 38.4397 23.4824 38.7029 23.0006C38.9661 22.5188 39.322 22.0938 39.75 21.7499C40.1811 21.3706 40.686 21.0845 41.2329 20.9095C41.7798 20.7346 42.357 20.6746 42.9282 20.7332C43.4995 20.7919 44.0524 20.9681 44.5523 21.2506C45.0522 21.5331 45.4884 21.9159 45.8333 22.3749L65.9583 47.3749C66.5712 48.1205 66.9062 49.0556 66.9062 50.0207C66.9062 50.9859 66.5712 51.921 65.9583 52.6666L45.125 77.6666C44.707 78.1708 44.176 78.5694 43.5752 78.83C42.9743 79.0907 42.3205 79.206 41.6667 79.1666Z" fill="#231F20"/>
</svg>
