<svg width="100" height="100" viewBox="0 0 100 100" fill="none" xmlns="http://www.w3.org/2000/svg">
<path d="M57.6249 79.1667C57.0024 79.1688 56.3873 79.0314 55.8249 78.7646C55.2625 78.4978 54.767 78.1084 54.3749 77.625L34.2499 52.625C33.637 51.8795 33.302 50.9443 33.302 49.9792C33.302 49.0141 33.637 48.0789 34.2499 47.3333L55.0832 22.3333C55.7904 21.4824 56.8067 20.9473 57.9085 20.8458C59.0103 20.7442 60.1073 21.0844 60.9582 21.7917C61.8091 22.4989 62.3442 23.5152 62.4458 24.617C62.5474 25.7188 62.2071 26.8158 61.4999 27.6667L42.8749 50L60.8749 72.3333C61.3844 72.945 61.708 73.6897 61.8075 74.4795C61.907 75.2693 61.7782 76.071 61.4363 76.7899C61.0944 77.5088 60.5537 78.1147 59.8783 78.5359C59.2028 78.9571 58.4208 79.176 57.6249 79.1667V79.1667Z" fill="#231F20"/>
</svg>
