<svg width="40" height="57" viewBox="0 0 40 57" fill="none" xmlns="http://www.w3.org/2000/svg">
<path d="M34.2958 28.5173L20.2386 51.9867L5.81511 28.7427C4.19011 26.1173 3.30885 23.0907 3.30885 19.9867C3.30885 10.804 10.8026 3.30934 19.987 3.30934C29.1714 3.30934 36.6537 10.804 36.6537 19.9867C36.6537 22.9987 35.8307 25.948 34.2958 28.5173ZM19.987 0C8.96619 0 0 8.96665 0 19.9867C0 23.7107 1.03125 27.344 2.98333 30.4973L18.849 56.064C19.1526 56.5547 19.6886 56.852 20.2641 56.852C20.2687 56.852 20.2734 56.852 20.2771 56.852C20.8578 56.8466 21.3949 56.54 21.6933 56.0427L37.1542 30.2267C38.9985 27.1413 39.9739 23.6 39.9739 19.9867C39.9739 8.96665 31.0078 0 19.987 0Z" fill="black"/>
<path d="M19.987 26.672C16.2944 26.672 13.3021 23.6693 13.3021 19.9866C13.3021 16.3133 16.313 13.3027 19.987 13.3027C23.66 13.3027 26.66 16.3133 26.66 19.9866C26.66 23.616 23.7381 26.672 19.987 26.672ZM19.987 9.99332C14.4766 9.99332 9.99329 14.476 9.99329 19.9866C9.99329 25.4626 14.4037 29.98 19.987 29.98C25.6392 29.98 29.9802 25.4026 29.9802 19.9866C29.9802 14.476 25.4974 9.99332 19.987 9.99332Z" fill="black"/>
</svg>
