<svg width="52" height="52" viewBox="0 0 52 52" fill="none" xmlns="http://www.w3.org/2000/svg">
<path d="M27.0043 44.7655L6.93659 24.6869C1.99128 19.7415 1.71992 11.9775 6.10065 6.70818L14.6417 15.2495C12.3975 17.7922 12.4908 21.6695 14.9231 24.1015L27.5881 36.7775C27.5881 36.7775 27.5881 36.7775 27.5892 36.7775C30.0184 39.2082 33.8949 39.3069 36.4417 37.0602L44.9835 45.6015C39.7303 49.9735 31.9835 49.7442 27.0043 44.7655ZM11.4184 3.47485L17.8455 9.88018C18.4376 10.4735 18.4376 11.4322 17.8455 12.0242L16.7736 13.0962L8.20795 4.5295L9.27357 3.47218C9.86472 2.88284 10.8257 2.88285 11.4184 3.47485ZM41.8095 33.8549L48.2381 40.2842C48.8288 40.8749 48.8288 41.8362 48.2381 42.4269L47.1663 43.4988L38.5955 34.9269L39.6663 33.8549C40.2575 33.2655 41.2184 33.2655 41.8095 33.8549ZM50.3803 38.1415L43.9523 31.7135C42.1799 29.9402 39.296 29.9402 37.5236 31.7135L34.6017 34.6348C33.2589 35.9775 31.0741 35.9775 29.7319 34.6348L17.0663 21.9589C15.7204 20.6135 15.7204 18.4349 17.0663 17.0895C17.5365 16.6189 18.8887 15.2668 19.9887 14.1668C21.7527 12.4028 21.7777 9.52684 19.9865 7.73618L13.5595 1.3295C11.7876 -0.442497 8.90325 -0.442471 7.13555 1.32553C5.81263 2.63753 5.38659 3.05885 4.79336 3.64685C-1.59779 10.0389 -1.59779 20.4375 4.79336 26.8282L24.8616 46.9082C31.2679 53.3135 41.6365 53.3148 48.0433 46.9082L50.3813 44.5695C52.1532 42.7975 52.1532 39.9135 50.3803 38.1415Z" fill="black"/>
</svg>
