<svg width="45" height="51" viewBox="0 0 45 51" fill="none" xmlns="http://www.w3.org/2000/svg">
<path d="M22.3854 17.908C21.5625 17.908 20.8933 17.2388 20.8933 16.4159C20.8933 15.5935 21.5625 14.9243 22.3854 14.9243C23.1499 14.9243 23.7818 15.5028 23.8671 16.2456C23.8447 16.3815 23.8411 16.5185 23.8567 16.656C23.7417 17.3637 23.1261 17.908 22.3854 17.908ZM16.763 25.2185C19.8474 27.1935 23.6333 27.4039 27.1521 25.7852C27.901 25.4413 28.2281 24.5544 27.8838 23.8055C27.5395 23.0576 26.6537 22.7295 25.9046 23.0732C23.3318 24.2576 20.5865 24.1227 18.3729 22.7039C16.2125 21.3211 14.9229 18.9695 14.9229 16.4159C14.9229 12.3013 18.2709 8.95439 22.3854 8.95439C26.4999 8.95439 29.8469 12.3013 29.8469 16.4159C29.8469 17.2388 29.1775 17.908 28.3546 17.908C27.6026 17.908 26.8999 17.3388 26.8625 16.4388C26.8625 16.4304 26.8625 16.4243 26.8625 16.4159C26.8625 13.9481 24.8542 11.9388 22.3854 11.9388C19.9166 11.9388 17.9083 13.9481 17.9083 16.4159C17.9083 18.8852 19.9166 20.8935 22.3854 20.8935C23.5313 20.8935 24.577 20.4601 25.3698 19.7492C26.1625 20.4601 27.2089 20.8935 28.3546 20.8935C30.8234 20.8935 32.8318 18.8852 32.8318 16.4159C32.8318 10.656 28.1458 5.96946 22.3854 5.96946C16.625 5.96946 11.9385 10.656 11.9385 16.4159C11.9385 19.9919 13.7422 23.2825 16.763 25.2185Z" fill="black"/>
<path d="M41.7865 45.844L30.4652 34.5227L41.7865 23.2028V45.844ZM5.0948 47.9544L17.0338 36.0159H27.737L39.6756 47.9544H5.0948ZM2.98437 45.844V23.2028L14.3052 34.5227L2.98437 45.844ZM5.96927 21.9653L3.6026 19.5997L5.96927 17.232V21.9653ZM35.8161 2.98399V13.6295C35.8161 13.6295 35.8161 13.6295 35.8161 13.6304V24.9519L27.737 33.0304H17.0338L8.95365 24.9519V13.6304C8.95365 13.6295 8.95365 13.6295 8.95365 13.6295V2.98399H35.8161ZM41.1677 19.5997L38.801 21.9653V17.232L41.1677 19.5997ZM44.7709 19.5971C44.7704 19.2117 44.6152 18.8252 44.3338 18.544L38.801 13.0117V1.49199C38.801 0.667984 38.1333 -7.62939e-06 37.3089 -7.62939e-06H7.46147C6.63699 -7.62939e-06 5.96927 0.667984 5.96927 1.49199V13.0117L0.436467 18.544C0.431253 18.5492 0.42708 18.556 0.42188 18.5612C0.142187 18.8481 0 19.2279 0 19.5971C0 19.5987 0 19.5997 0 19.5997V46.4628C0 48.9346 2.01093 50.9398 4.47656 50.9398H40.2933C42.7646 50.9398 44.7709 48.9294 44.7709 46.4628V19.5997C44.7709 19.5997 44.7709 19.5987 44.7709 19.5971Z" fill="black"/>
</svg>
