<svg width="32" height="66" viewBox="0 0 32 66" fill="none" xmlns="http://www.w3.org/2000/svg">
<path d="M7.9036 32.8653H6.3636V62.9227C6.36254 63.5533 6.62134 64.144 7.04121 64.5627C7.45787 64.9827 8.0532 65.244 8.68547 65.2427H19.8421C20.4751 65.244 21.0703 64.9827 21.4869 64.5627C21.9068 64.144 22.1656 63.5533 22.1645 62.9227V33.9173H28.7188C29.9355 33.916 30.9312 32.9813 31.0312 31.7907L31.812 22.588V22.5854L31.8203 22.3934C31.8177 21.1174 30.7855 20.0693 29.4921 20.0693H22.1645V15.0827C22.1656 14.4 22.7177 13.8507 23.3979 13.8507H29.6365C30.9183 13.8493 31.9568 12.8107 31.9573 11.5267V2.32533C31.9557 1.04399 30.924 0.00267029 29.6365 0H19.0948C12.0631 0.00133514 6.36414 5.70267 6.3636 12.7387V20.0693H2.3188C1.68334 20.0667 1.086 20.332 0.671333 20.7547C0.2536 21.176 -0.000530003 21.7653 3.33071e-06 22.392V31.596C-0.00106334 32.2213 0.254136 32.812 0.672936 33.2333C1.088 33.6547 1.68547 33.9187 2.3188 33.9173H7.9036V32.3773H6.3636V32.8653H7.9036H9.44374V32.3773V30.8373H2.3188V31.6L2.85987 31.064C2.72507 30.924 2.5172 30.836 2.3188 30.8373V31.6L2.85987 31.064L2.324 31.596H3.08027C3.0812 31.4 2.99787 31.2013 2.85987 31.064L2.324 31.596H3.08027V22.392H2.326L2.86147 22.9214C2.9984 22.7854 3.0812 22.5867 3.08027 22.392H2.326L2.86147 22.9214L2.3188 22.3853V23.1493C2.5188 23.1507 2.72707 23.06 2.86147 22.9214L2.3188 22.3853V23.1493H9.44374V12.7387C9.44427 10.0653 10.5219 7.66134 12.2708 5.90801C14.0224 4.15867 16.4255 3.08131 19.0948 3.08131H29.6365V2.32533H28.8771C28.8787 2.73866 29.2088 3.07732 29.6365 3.08131V2.32533H28.8771V11.5267H29.6365V10.7693C29.2145 10.7707 28.8776 11.112 28.8771 11.5267H29.6365V10.7693H23.3979C21.0219 10.7747 19.0855 12.6933 19.0844 15.0827V23.1493H29.4921V22.3934H28.7401C28.7407 22.812 29.0797 23.148 29.4921 23.1493V22.3934H28.7401H29.4808L28.7421 22.332L28.7401 22.3934H29.4808L28.7421 22.332L28.7427 22.328L27.962 31.5293H27.9625L28.7188 31.5933V30.8373C28.3183 30.8387 27.9932 31.1453 27.9625 31.5293L28.7188 31.5933V30.8373H19.0844V62.9227H19.8437L19.3068 62.3867C19.1693 62.5213 19.0833 62.7227 19.0844 62.9227H19.8437L19.3068 62.3867L19.8421 62.9213V62.1627C19.6459 62.1613 19.4417 62.248 19.3068 62.3867L19.8421 62.9213V62.1627H8.68547V62.9213L9.2208 62.3867C9.086 62.248 8.88174 62.1613 8.68547 62.1627V62.9213L9.2208 62.3867L8.6844 62.9227H9.44374C9.4448 62.7227 9.3588 62.5213 9.2208 62.3867L8.6844 62.9227H9.44374V32.8653H7.9036Z" fill="black"/>
</svg>
