<svg width="64" height="64" viewBox="0 0 64 64" fill="none" xmlns="http://www.w3.org/2000/svg">
<path d="M47.2709 13.5693V12.0293C44.4776 12.0307 42.215 14.2933 42.2136 17.088C42.215 19.8827 44.4803 22.1386 47.2709 22.14C50.0603 22.1386 52.323 19.8813 52.3243 17.088C52.323 14.2947 50.0629 12.0307 47.2709 12.0293V13.5693V15.1093C48.3563 15.1106 49.243 15.996 49.2443 17.088C49.243 18.176 48.3603 19.0573 47.2709 19.06C46.1776 19.0573 45.295 18.1747 45.2936 17.088C45.295 15.996 46.1816 15.1106 47.2709 15.1093V13.5693Z" fill="black"/>
<path d="M31.6417 18.2027V16.6627C23.4444 16.6653 16.7844 23.3226 16.7817 31.524C16.7844 39.72 23.4444 46.376 31.6417 46.3787C39.8391 46.376 46.4938 39.72 46.4964 31.524C46.4938 23.324 39.8391 16.6653 31.6417 16.6627V18.2027V19.7426C34.8911 19.744 37.8271 21.0613 39.9644 23.1973C42.0991 25.3347 43.4164 28.2706 43.4164 31.524C43.4164 34.7733 42.0991 37.708 39.9644 39.8453C37.8271 41.9813 34.8924 43.2986 31.6417 43.2986C28.3911 43.2986 25.4551 41.9813 23.3164 39.8453C21.1804 37.708 19.8631 34.772 19.8618 31.524C19.8631 28.272 21.1804 25.336 23.3164 23.1973C25.4551 21.0613 28.3911 19.744 31.6417 19.7426V18.2027Z" fill="black"/>
<path d="M43.4936 61.5027V59.9627H19.5549C15.0109 59.9627 10.9003 58.1187 7.91093 55.132C4.92506 52.144 3.08134 48.0346 3.0808 43.492V19.5506C3.08134 15.008 4.92506 10.9 7.91093 7.91067C10.9003 4.92533 15.0109 3.08134 19.5549 3.08001H43.4936C48.0376 3.08134 52.1469 4.92533 55.1349 7.91067C58.1203 10.8987 59.9643 15.008 59.9643 19.5506V43.492C59.9643 48.0346 58.1203 52.144 55.1349 55.132C52.1469 58.1187 48.0376 59.9627 43.4936 59.9627V61.5027V63.0427C54.2789 63.04 63.0416 54.276 63.0443 43.492V19.5506C63.0416 8.76797 54.2789 0.00265884 43.4936 -7.62939e-06H19.5549C8.76826 0.00265884 0.0032 8.76797 0 19.5506V43.492C0.0032 54.276 8.76826 63.04 19.5549 63.0427H43.4936V61.5027Z" fill="black"/>
</svg>
