<svg width="56" height="42" viewBox="0 0 56 42" fill="none" xmlns="http://www.w3.org/2000/svg">
<path d="M36.796 23.1773L36.1 21.804L23.2053 28.3293L23.188 28.3386L23.5653 29.04L23.416 28.2533C23.3813 28.26 23.3107 28.2746 23.188 28.3386L23.5653 29.04L23.416 28.2533L23.4693 28.5293L23.4453 28.2493L23.416 28.2533L23.4693 28.5293L23.4453 28.2493H23.436L23.096 28.1733L23.084 28.1666L22.832 28.6227L23.2214 28.292L23.084 28.1666L22.832 28.6227L23.2214 28.292L22.3693 29.0133H23.4733C23.4747 28.664 23.3134 28.396 23.2214 28.292L22.3693 29.0133H23.4733V15.628H22.3973L23.1854 16.3853C23.276 16.3 23.4733 16.0227 23.4733 15.628H22.3973L23.1854 16.3853L22.8534 16.0653L23.08 16.4746L23.1854 16.3853L22.8534 16.0653L23.08 16.4746L23.42 16.3973H23.432L23.4907 15.7253L23.1627 16.2986C23.3587 16.404 23.4267 16.3933 23.432 16.3973L23.4907 15.7253L23.1627 16.2986L23.1733 16.3053L35.6547 23.1693L36.396 21.82L35.6347 23.1587L35.6894 23.0653L35.5973 23.1293L35.6347 23.1587L35.6894 23.0653L35.5973 23.1293L36.116 22.764H35.5093C35.5213 23.0573 35.5933 23.1106 35.5973 23.1293L36.116 22.764H35.5093H36.5894L35.66 22.2213C35.5467 22.412 35.508 22.6213 35.5093 22.764H36.5894L35.66 22.2213L36.564 22.748L36.0627 21.824C35.94 21.8867 35.768 22.0293 35.66 22.2213L36.564 22.748L36.0627 21.824L36.796 23.1773L36.1 21.804L36.796 23.1773L37.5293 24.532C37.8307 24.372 38.1294 24.1053 38.3214 23.772C38.516 23.4413 38.592 23.0733 38.5894 22.764C38.5787 22.136 38.3573 21.7107 38.1147 21.3547C37.8627 21.0027 37.5587 20.712 37.1574 20.4813L37.1467 20.476L24.6693 13.612L23.928 14.9613L24.692 13.624C24.1814 13.348 23.7867 13.3267 23.42 13.3173C22.8454 13.324 22.3227 13.436 21.7854 13.6787C21.5187 13.8067 21.244 13.9667 20.9653 14.2507C20.696 14.524 20.392 15.0093 20.3934 15.628V29.0133C20.392 29.3187 20.4707 29.612 20.5827 29.8427C20.7854 30.252 21.0494 30.4906 21.2867 30.668C21.648 30.928 21.9947 31.0653 22.3467 31.1706C22.7 31.2706 23.0547 31.328 23.436 31.3293C23.7867 31.3213 24.1614 31.3 24.6494 31.0507L23.9187 29.6947L24.6133 31.0693L37.5107 24.5413L37.5293 24.532L36.796 23.1773ZM53.8067 14.4093H55.3467C55.34 10.8133 53.9027 7.28396 51.5827 4.58796C49.268 1.9013 45.9853 0.00400925 42.268 7.62939e-06H13.3093C9.59468 0.00667572 6.27066 1.89335 3.89466 4.57201C1.51599 7.26134 0.00666667 10.7933 0 14.4093V27.6213C0.004 31.2387 1.53333 34.6333 3.93333 37.1467C6.33333 39.656 9.65868 41.32 13.3093 41.3227H42.268C45.9213 41.3227 49.204 39.648 51.544 37.1306C53.8867 34.6106 55.3427 31.2173 55.3467 27.6213V14.4093H53.8067H52.2667V27.6213C52.2693 30.3707 51.1294 33.0586 49.2894 35.032C47.4467 37.0093 44.96 38.244 42.268 38.2426H13.3093C10.6187 38.2453 8.05869 37.0027 6.15869 35.0173C4.26003 33.0347 3.07601 30.3493 3.08001 27.6213V14.4093C3.07201 11.6773 4.27733 8.77329 6.19867 6.61596C8.12133 4.44796 10.6827 3.07329 13.3093 3.07996H42.268C44.896 3.07595 47.3827 4.43867 49.2507 6.60001C51.1147 8.75068 52.2733 11.6573 52.2667 14.4093H53.8067Z" fill="#020202"/>
</svg>
