<svg width="124" height="125" viewBox="0 0 124 125" fill="none" xmlns="http://www.w3.org/2000/svg">
<path fill-rule="evenodd" clip-rule="evenodd" d="M123.821 4.71863C121.989 5.39863 122.086 8.01196 121.181 9.61996C122.86 8.8973 124.26 6.9333 123.821 4.71863Z" fill="#422123"/>
<path fill-rule="evenodd" clip-rule="evenodd" d="M1.1972 57.3493C1.64653 55.184 0.67854 52.8533 1.00921 50.1813C0.767874 50.1706 0.749176 49.94 0.443842 49.9933C-0.185491 51.9933 -0.314805 56.284 1.1972 57.3493" fill="#422123"/>
<path fill-rule="evenodd" clip-rule="evenodd" d="M11.0078 72.2547C12.7652 76.9533 14.9371 81.992 14.7811 87.5347C14.6611 91.7947 13.1465 95.332 13.4598 100.739C11.5825 104.392 7.33313 106.332 8.17847 112.247C8.4358 114.052 10.2785 118.044 11.7625 119.416C15.9198 123.264 23.9265 119.589 31.3798 120.36C35.0065 120.733 37.9585 123.197 41.5705 123.567C47.1532 124.137 49.3265 120.849 54.3972 120.36C58.2225 119.991 59.8651 120.848 62.3211 121.113C63.1265 121.201 64.0691 121.001 64.9625 121.113C68.1985 121.524 71.5212 123.624 75.3372 124.132C79.7385 124.721 84.8825 125.211 89.6758 124.508C96.8372 123.465 103.568 117.045 100.052 108.287C97.4265 101.745 90.2625 96.4987 80.9972 95.8347C65.6345 94.7333 52.4918 99.1213 37.7971 98.476C32.3091 98.2347 28.4425 96.8227 23.2718 97.72C23.8838 92.724 21.4945 88.7827 22.8931 84.516C23.5691 82.448 27.4132 79.5907 29.3092 78.2907C35.8225 73.8173 42.7212 69.6973 45.3425 62.2547C45.8545 60.8053 45.8305 59.1093 46.4732 56.972C46.7305 56.1147 47.6958 55.52 47.7945 54.1427C47.9851 51.52 45.7638 49.684 45.1531 47.3507C46.3611 46.9867 46.5865 45.636 47.0412 44.5213C71.2572 31.5733 95.7972 18.9467 121.181 7.168C122.357 3.91734 120.388 1.22267 118.352 3.3729e-06C113.245 0.20267 109.724 2.552 105.901 4.52533C93.9305 10.7093 81.0545 16.124 69.8665 22.6387C61.1718 27.7013 51.6518 31.7053 43.4545 36.976C42.4291 35.4973 39.5812 36.4013 38.7398 37.352C37.4852 36.1373 34.9945 32.232 33.0798 31.8827C30.7798 31.4613 29.5078 32.72 28.3625 34.3333C28.1345 35.344 29.2678 35.6987 28.7412 36.4093C27.4692 36.2213 26.8425 36.8907 25.7225 36.7853C24.6491 36.6853 24.2838 35.9453 23.2718 36.032C21.2012 36.2093 20.4585 38.648 19.1185 40.1827C17.6425 40.8427 16.0585 41.3973 14.9692 42.4453C14.4078 42.1293 13.9572 41.6987 13.2718 41.5027C12.3772 42.62 10.8105 43.0653 10.0638 44.332C10.3278 45.076 10.5851 45.8253 10.8198 46.5973C9.22514 47.0773 8.70916 48.6373 7.23582 49.2373C6.90116 48.6293 6.70516 47.8813 6.10249 47.54C2.02382 49.22 3.34381 56.6347 4.59315 59.6147C6.26515 63.5933 9.26249 67.5827 11.0078 72.2547" fill="#422123"/>
<path fill-rule="evenodd" clip-rule="evenodd" d="M69.1118 28.2973C70.7092 27.756 72.2465 27.1573 73.2625 26.0333C71.5092 26.42 69.7225 26.7693 69.1118 28.2973ZM113.823 5.84796C111.404 6.59196 108.805 8.13595 106.088 9.24262C100.925 11.3493 95.7625 13.9653 90.9972 16.412C88.4972 17.696 85.5772 18.8493 84.0158 20.752C89.1972 18.7226 94.5332 15.8933 99.8638 13.3933C103.783 11.5546 108.293 10.0386 112.126 8.11062C113.373 7.48528 115.145 6.77196 114.956 5.84796C114.343 5.65196 114.317 5.69596 113.823 5.84796ZM66.4705 29.4293C58.5038 32.0893 52.0598 37.2773 45.1532 40.3706C44.8745 39.9586 44.7865 39.356 44.3998 39.0506C45.3065 37.54 47.1212 36.9986 48.5492 36.22C55.8625 32.2373 63.7598 28.8053 71.1892 24.5239C84.1385 17.0613 98.4185 10.6746 112.313 3.77196C113.97 2.94796 115.656 1.49996 117.03 1.69862C118.616 1.92396 119.598 4.18128 118.728 5.65995C118.201 6.55328 115.581 7.21461 114.012 7.92395C109.444 9.98528 104.721 12.8426 100.428 14.904C82.4718 23.516 62.2665 34.2653 46.2838 42.8226C46.0798 42.4026 45.9745 41.8786 45.7198 41.5026C45.9665 40.6786 47.1278 40.356 47.7945 39.9946C53.4905 36.9 60.4932 33.5506 66.0932 30.1826C66.0638 29.9653 66.1372 29.8493 66.2825 29.808C66.2505 29.6466 66.3572 29.628 66.4705 29.6186C66.4705 29.5546 66.4705 29.4933 66.4705 29.4293" fill="#75353B"/>
<path fill-rule="evenodd" clip-rule="evenodd" d="M36.4771 40.56C37.8771 43.3053 39.6505 45.688 41.5705 47.9173C40.7985 44.6573 38.5038 41.9333 36.4771 40.56ZM44.7758 54.7093C39.8665 48.048 35.5852 40.76 30.0612 34.712C30.6532 34.1093 31.4345 33.696 32.3265 33.3906C32.4852 33.356 32.5051 33.4653 32.5145 33.5786C32.6411 33.5786 32.7652 33.5786 32.8918 33.5786C36.3772 38.2026 40.8571 42.7693 43.6451 48.4826C44.5011 50.2386 45.7985 52.5 44.7758 54.7093" fill="#75353B"/>
<path fill-rule="evenodd" clip-rule="evenodd" d="M40.4372 51.6906C39.7945 52.432 39.1558 53.1773 38.5518 53.9533C33.6118 49.7746 30.2292 44.0426 26.4772 38.6733C27.9785 38.264 29.2812 38.3386 31.0039 38.484C34.4732 42.5626 37.2919 47.288 40.4372 51.6906Z" fill="#F79814"/>
<path fill-rule="evenodd" clip-rule="evenodd" d="M29.6852 49.804C28.4852 47.0426 27.1145 44.4506 24.7798 42.8226C26.0732 45.492 27.4185 48.108 29.6852 49.804ZM40.2478 59.236C39.8358 60.2693 38.9012 60.78 37.9865 61.3133C31.7652 55.3333 26.5798 48.3173 21.9492 40.748C22.1892 39.792 22.8958 39.304 23.2718 38.484C29.0492 45.28 33.5598 53.348 40.2478 59.236" fill="#75353B"/>
<path fill-rule="evenodd" clip-rule="evenodd" d="M41.1945 38.484C42.4185 40.3227 44.7278 42.936 44.2118 45.276C42.8878 43.14 41.4291 41.1413 40.2478 38.8627C40.8305 39.0027 40.6105 38.3427 41.1945 38.484" fill="white"/>
<path fill-rule="evenodd" clip-rule="evenodd" d="M33.4585 59.8026C32.7372 60.78 32.1439 61.8853 31.0039 62.4426C26.1985 56.1213 21.4865 49.7013 16.2892 43.768C17.5092 43.036 18.6559 42.2333 20.0652 41.6933C23.9399 48.3146 28.6892 54.0693 33.4585 59.8026Z" fill="#F79814"/>
<path fill-rule="evenodd" clip-rule="evenodd" d="M13.8385 44.1453C17.5559 53.5053 24.8039 60.3427 29.4959 68.104C28.1199 68.9547 27.5519 66.904 27.0425 66.2173C22.2679 59.7667 16.6092 52.5227 12.7052 45.0867C13.1359 44.8253 13.4359 44.436 13.8385 44.1453" fill="#75353B"/>
<path fill-rule="evenodd" clip-rule="evenodd" d="M11.7625 48.1053C15.0905 54.8373 19.4772 60.512 23.4599 66.5946C22.1172 67.264 21.1038 68.2653 19.6852 68.8573C15.8812 63.1053 12.5612 56.8653 8.55585 51.3133C9.43718 50.0573 10.6065 49.0893 11.7625 48.1053" fill="#F79814"/>
<path fill-rule="evenodd" clip-rule="evenodd" d="M5.53717 51.5C9.05984 58.9187 12.5171 66.4053 17.0465 72.82C13.2811 70.9 12.0945 66.9693 9.87584 62.8213C8.04918 59.4067 5.5745 56.6347 5.53717 51.5Z" fill="#75353B"/>
<path fill-rule="evenodd" clip-rule="evenodd" d="M40.8145 52.6333C41.3958 52.932 41.4772 53.732 41.9465 54.1426C41.5092 54.7106 41.1078 55.3186 40.6265 55.84C40.0025 55.7746 39.8092 55.276 39.4945 54.8973C39.7545 53.964 40.7372 53.7493 40.8145 52.6333Z" fill="white"/>
<path fill-rule="evenodd" clip-rule="evenodd" d="M35.1572 69.8013C30.7452 75.4546 18.5692 74.344 18.9305 84.14C20.4679 82.0466 21.0292 79.7 23.0838 78.104C27.1012 74.9706 33.9492 74.7253 35.5319 69.8013C35.4052 69.8013 35.2799 69.8013 35.1572 69.8013V69.8013ZM37.2292 67.724C37.4825 67.996 38.2985 67.996 38.5518 67.724C38.5518 67.4733 38.5518 67.2213 38.5518 66.9706C37.9518 66.4653 37.1745 66.9906 37.2292 67.724ZM39.8705 65.2733C40.5452 65.7466 41.4012 64.868 40.8145 64.14C40.0638 64.0826 39.7932 64.5026 39.8705 65.2733ZM42.7012 56.0293C43.7545 56.3613 43.5519 57.9467 45.3425 57.5387C43.6159 62.644 41.6092 67.0106 37.4185 70.5546C35.5718 72.116 33.1585 73.2973 31.0039 74.7053C27.1505 77.2253 21.4945 79.7866 20.6292 85.08C20.1265 88.144 20.8799 91.4693 21.1945 95.0786C21.5239 98.8346 18.8825 104.901 21.3838 106.776C24.1518 108.853 30.2012 106.619 33.4585 108.476C29.4319 111.044 19.1078 109.715 17.9865 104.889C17.3972 102.348 18.5572 98.74 18.7425 96.0253C19.4172 86.1346 15.7972 77.732 12.7052 71.876C14.0145 72.9386 14.8039 75.3466 16.8572 75.6493C18.8892 75.948 20.7292 74.5466 22.5158 73.7626C22.5718 71.7466 25.2092 71.1786 26.4772 69.8013C29.5065 71.8293 32.3852 68.6826 34.4012 67.3493C33.5159 65.4106 36.1572 64.8693 36.8532 63.3866C39.2492 64.0933 42.2879 61.8573 42.7012 59.8026C42.9852 58.392 41.2452 57.0213 42.7012 56.0293" fill="#FBBF2A"/>
<path fill-rule="evenodd" clip-rule="evenodd" d="M33.8345 60.7453C36.2985 61.6306 33.0958 62.8186 32.7025 64.1399C32.1092 64.2293 32.2025 63.6333 31.7585 63.5759C32.2545 62.4346 33.3825 61.9306 33.8345 60.7453" fill="white"/>
<path fill-rule="evenodd" clip-rule="evenodd" d="M21.1945 70.9333C20.7172 70.5946 20.4852 70.0053 20.2545 69.4239C21.6812 69.8773 23.2532 67.4413 24.0252 67.3493C24.3732 67.308 24.9585 67.8493 24.9679 67.9133C25.1679 69.156 22.2052 69.848 21.1945 70.9333" fill="white"/>
<path fill-rule="evenodd" clip-rule="evenodd" d="M44.5878 109.607C43.1692 110.548 41.3052 110.071 40.2478 111.495C44.2038 111.917 47.4572 110.028 48.7385 107.155C46.9518 105.871 46.0625 108.627 44.5878 109.607V109.607ZM16.8572 91.3067C18.6145 95.94 15.6385 101.328 16.6665 105.269C18.1972 111.124 28.4905 112.623 34.7785 109.416C35.8492 110.008 36.9865 112.155 35.7212 113.38C34.4652 114.015 33.3892 112.984 32.3265 112.813C32.6332 113.685 34.1212 114.877 35.7212 114.7C38.5598 114.385 38.3345 110.28 36.8532 108.476C36.0198 107.46 33.8785 106.479 32.1385 106.211C28.6985 105.681 24.6878 106.303 22.5158 104.512C25.0572 103.915 28.7238 104.921 32.7025 104.7C37.2292 104.451 40.5665 102.877 45.5318 103.759C48.4398 104.275 50.8492 105.723 50.0598 109.795C46.8652 113.451 41.8465 115.641 36.0972 115.453C32.5732 115.34 29.9305 113.023 27.0425 112.624C24.1985 112.233 21.6452 112.859 19.6852 111.869C13.3985 108.704 15.6492 99.0493 16.8572 91.3067" fill="#FBBF2A"/>
<path fill-rule="evenodd" clip-rule="evenodd" d="M91.7505 118.663C94.8452 118.981 96.6078 116.356 96.8452 113.191C96.8038 113.044 96.6865 112.971 96.4665 113C95.2918 115.284 93.7772 117.229 91.7505 118.663ZM13.6478 103.759C13.1585 105.176 14.3825 106.101 14.4052 107.531C14.4279 109.32 13.4359 110.893 13.8385 112.813C15.1985 119.316 23.7318 117.039 31.9505 117.907C37.0652 118.447 38.7252 121.076 44.2118 120.549C47.5105 120.229 49.9585 118.2 53.2665 117.531C58.9398 116.381 65.1265 118.26 70.4332 118.663C73.5638 118.9 76.8958 119.076 80.2438 118.849C85.3492 118.508 91.8545 116.191 92.8825 113C94.5958 107.685 90.9958 102.983 87.7892 101.307C83.7865 99.2133 76.1398 98.6746 70.0545 98.6626C67.0172 98.66 63.9665 99.3466 61.1892 99.984C56.9825 100.949 53.5132 102.553 49.1145 103.192C41.4878 99.9013 31.4038 104.9 22.5158 102.627C22.6745 101.34 22.7918 100.008 23.2718 99.044C27.4692 97.9546 31.3705 99.684 34.5878 99.984C44.8972 100.952 54.6798 98.7813 64.0185 97.72C67.5145 97.3253 71.4825 97.7626 74.9612 97.3426C84.2812 96.2253 93.8865 100.345 97.2225 106.588C99.9745 111.739 98.8252 118.273 94.7678 120.736C90.6638 123.232 83.2558 123.036 77.4145 122.247C69.6998 121.201 63.6158 117.369 54.3972 118.849C50.6438 119.453 47.8438 121.285 44.9652 121.68C39.7052 122.397 37.0385 119.357 32.1385 118.849C25.2052 118.135 17.2852 121.16 13.0825 117.719C9.3905 114.695 9.53983 105.796 13.6478 103.759" fill="#FBBF2A"/>
<path fill-rule="evenodd" clip-rule="evenodd" d="M45.7198 116.775C48.2812 116.632 50.1625 115.809 51.1905 114.135C49.0825 114.729 47.3238 115.675 45.7198 116.775ZM82.8838 111.495C79.9118 113.512 74.8972 114.008 70.2452 113.38C68.7625 113.177 67.3758 112.06 65.7172 111.869C65.1078 111.8 64.3052 112.079 63.6425 112.059C59.7719 111.941 54.5878 110.893 53.0798 113.757C59.9625 111.387 68.4918 115.708 76.6598 115.077C79.1598 114.885 82.4705 114.501 83.4505 111.869C83.1812 111.825 83.1332 111.56 82.8838 111.495V111.495ZM84.0158 108.099C84.2758 108.089 84.4292 108.187 84.5812 108.287C85.2798 107.9 85.4412 107.081 84.9585 106.397C83.7838 106.165 83.7398 107.424 84.0158 108.099V108.099ZM79.1118 102.815C77.8278 102.405 76.4478 101.828 75.1492 101.681C69.1932 101.021 63.6705 102.72 58.7385 104.133C57.0238 104.628 55.0478 104.208 54.0212 105.645C60.6625 105.629 67.0345 102.611 74.5838 103.192C77.3265 103.403 79.5798 104.651 82.3185 104.512C81.9905 103.188 80.2478 103.176 79.1118 102.815ZM14.9692 109.795C15.6438 109.627 16.0145 110.88 16.6665 111.495C17.3118 112.099 18.4172 112.884 19.1185 113.191C21.6532 114.295 24.4398 113.259 27.9852 113.945C29.6438 114.265 30.8825 115.737 32.3265 116.211C39.9798 118.713 48.5945 114.713 51.5678 110.171C51.7078 107.769 51.5385 105.673 50.6252 104.325C56.3718 103.401 60.9158 100.689 68.3585 100.173C77.6372 99.5333 89.6318 100.823 91.5625 107.72C91.9692 109.171 91.9225 111.62 91.3732 112.813C90.2425 115.263 83.9345 117.219 79.6772 117.531C76.4798 117.761 73.1825 117.595 70.0545 117.341C65.1958 116.951 58.9465 115.108 53.2665 116.211C49.3198 116.976 46.6438 119.643 41.3812 119.037C37.6505 118.611 33.9559 116.441 29.3092 116.019C24.2945 115.565 17.7052 117.565 15.3478 113.567C15.0545 112.477 14.9345 111.215 14.9692 109.795Z" fill="#FBBF2A"/>
<path fill-rule="evenodd" clip-rule="evenodd" d="M17.2345 48.4826C21.7345 54.232 27.5065 61.348 31.7585 67.3493C29.7225 66.736 28.7278 64.6013 27.6092 63.008C24.3252 58.3453 20.1638 53.832 17.2345 48.4826Z" fill="#75353B"/>
<path fill-rule="evenodd" clip-rule="evenodd" d="M19.1185 72.6306C14.0092 67.0519 10.4398 59.9293 7.04517 52.6333C11.2572 59.1106 14.7558 66.3053 19.1185 72.6306Z" fill="white"/>
</svg>
