<svg width="109" height="136" viewBox="0 0 109 136" fill="none" xmlns="http://www.w3.org/2000/svg">
<path fill-rule="evenodd" clip-rule="evenodd" d="M82.183 118.844C82.3018 116.52 81.7643 114.551 81.8774 112.803C81.8804 112.862 81.8834 112.921 81.8864 112.98C83.5145 117.559 87.7221 125.969 94.011 123.768C96.7355 122.813 97.8763 121.296 98.5737 118.905C102.244 106.313 90.1978 95.0013 82.6199 92.2792C81.1732 91.7605 79.4919 91.83 78.1147 91.2608C79.1031 88.9741 80.9531 86.8023 80.2156 83.4942C82.6473 80.6301 84.0532 76.0403 82.758 70.3619C84.7686 70.97 87.1165 70.8032 89.5363 70.5535C88.1379 72.8099 85.0825 73.534 85.0364 76.6591C84.9503 82.3451 94.5189 80.5859 99.0655 79.3348C99.9811 82.2329 96.5609 85.0327 94.2011 85.2804C92.2623 85.4843 87.8146 84.7061 88.2584 87.5409C88.4557 88.8013 91.1297 89.0127 92.9317 88.3735C93.8092 88.0626 94.0757 87.4202 94.9918 86.8445C98.5798 84.5901 102.04 82.924 100.273 78.5603C104.195 81.7099 100.557 88.0394 96.7169 89.2506C94.8838 89.8293 93.6448 89.2198 92.6841 90.5237C91.9346 91.5419 91.7945 93.84 92.7227 94.7964C94.1891 95.0434 96.5191 93.942 97.6078 92.7683C98.1015 92.2355 98.2207 91.188 98.7437 90.5728C99.6447 89.515 101.027 89.0856 101.825 88.1014C104.287 85.0663 104.972 80.6416 101.819 77.4135C108.472 75.2611 105.448 62.5154 97.7507 63.9029C98.1603 61.232 98.3486 58.8323 97.9058 56.4131C97.3745 53.5118 95.0946 51.8821 94.5531 49.992C94.3459 49.2745 94.5806 48.5565 94.4362 47.6814C94.0334 45.2346 93.1548 42.5672 92.7789 39.572C91.6709 30.7333 90.0068 20.9576 88.6234 13.7745C87.9209 10.1273 86.4233 6.65005 84.5928 4.53724C83.2062 2.93652 80.2686 0.683635 77.138 1.52988C74.9821 2.11301 74.0969 4.88367 74.2361 7.55557C74.487 12.409 75.7729 16.1874 77.1938 20.2317C80.0109 28.2564 82.5517 36.7591 85.5322 44.2139C82.9944 44.0039 80.4105 44.3344 78.2648 44.9373C75.3086 36.0362 71.8719 29.4592 63.5769 25.7299C56.141 22.3857 38.2158 23.3944 30.857 26.8508C29.5256 27.4757 27.1666 29.2961 26.9667 30.9667C26.4825 35.0385 30.1635 36.0737 31.2899 38.9429C31.7388 40.0831 31.3306 41.0403 32.1718 42.2817C29.7895 40.7668 27.0048 38.5541 23.2409 38.281C18.0043 37.8998 12.3041 42.6579 11.8638 45.8035C11.1886 50.6381 16.0679 52.824 18.3729 54.7376C8.09352 54.1922 -0.0299227 60.2402 4.34556 69.6978C7.04883 71.8843 12.6588 71.9405 16.7034 71.0319C10.861 73.0322 1.64411 78.6556 5.55381 86.5594C7.23727 88.5378 11.4074 88.9233 14.5194 87.7093C11.9536 91.1167 5.59442 97.3889 7.99816 103.181C8.63204 104.706 10.9094 107.023 12.4958 107.584C17.8298 109.469 21.4022 103.397 23.9447 101.483C22.3504 105.092 18.9587 111.148 21.1188 116.055C21.5817 117.104 22.7457 117.997 23.582 118.958C25.3626 121.01 26.7833 122.202 30.1575 122.188C35.3938 122.166 39.6291 118.35 41.7477 115.367C39.1566 122.839 42.0513 131.79 49.8421 130.99C53.7734 130.586 57.3342 127.952 59.5404 125.512C62.4216 122.323 63.4573 118.147 64.4727 113.861C64.9122 117.562 64.5166 121.432 65.021 124.7C65.5109 127.864 67.8945 131.358 70.0283 132.106C72.3322 132.916 74.9693 132.053 76.3792 130.894C78.8299 128.88 81.983 122.7 82.183 118.844" fill="#422123"/>
<path fill-rule="evenodd" clip-rule="evenodd" d="M102.829 72.731C97.6232 69.5624 92.584 74.6657 91.0075 78.495C89.7707 78.2996 88.5555 78.082 87.4084 77.7859C87.3353 75.8929 88.9372 75.0187 90.0537 73.7341C92.2741 71.179 93.3164 67.1603 96.2864 66.6497C98.9903 66.1843 104.873 69.2878 102.829 72.731" fill="#F79814"/>
<path fill-rule="evenodd" clip-rule="evenodd" d="M75.4825 56.8353C74.9792 57.8385 75.8923 58.7071 76.9933 58.5409C77.5181 57.5146 76.605 56.6455 75.4825 56.8353ZM77.6248 60.4677C76.9154 61.6185 78.2165 62.9801 79.5374 63.0435C79.743 61.962 78.981 60.4366 77.6248 60.4677ZM79.1086 58.0777C79.3941 59.4718 80.9945 60.3372 82.2366 60.0571C81.8248 58.6985 80.6898 58.1394 79.1086 58.0777ZM80.649 63.878C80.1792 65.543 82.0497 66.0199 83.6075 66.0433C84.1923 64.3027 82.2025 63.8694 80.649 63.878ZM82.6807 61.8154C83.1123 63.0906 84.8056 62.9674 85.9692 63.4305C86.409 62.0179 84.026 61.2535 82.6807 61.8154ZM85.7408 65.9354C85.8859 67.0623 87.7848 67.1248 88.8059 66.6716C88.8326 65.0348 86.4673 65.2013 85.7408 65.9354ZM87.639 61.2083C87.2289 62.3373 87.8421 63.8229 89.0176 63.8108C89.4277 62.6813 88.8132 61.1959 87.639 61.2083ZM85.6159 49.3757C85.7243 50.8858 87.5056 51.1038 88.5474 51.0083C89.2578 49.3745 86.8949 48.8229 85.6159 49.3757ZM92.1263 61.8726C91.7261 62.5907 91.874 65.0399 93.3444 64.8383C93.6227 63.7948 93.5992 61.5885 92.1263 61.8726ZM92.9399 56.8428C92.693 57.8748 92.9493 59.6146 93.8128 60.0054C94.7313 59.3716 94.353 56.6186 92.9399 56.8428ZM74.1489 55.1218C79.4019 56.0633 84.1403 57.5753 89.1215 58.8174C89.5379 59.1061 89.3488 60.0658 89.9045 60.2031C93.465 58.9883 90.7455 52.8924 88.6104 52.2532C88.0609 52.2637 88.1089 52.8161 88.1317 53.3454C85.0514 51.6238 82.6591 49.1442 79.4664 47.5492C88.872 43.9126 96.1397 52.8276 95.8305 61.1501C95.6948 64.7992 93.4265 65.8015 91.1882 67.9763C80.6716 69.76 74.4988 65.2041 74.1489 55.1218" fill="#75353B"/>
<path fill-rule="evenodd" clip-rule="evenodd" d="M89.9418 110.257C90.0978 111.837 90.4876 113.157 91.5437 113.739C92.3132 112.482 91.3972 109.629 89.9418 110.257ZM73.1964 96.141C74.3086 96.065 74.6617 94.6791 75.7891 94.5846C77.5319 94.4386 80.4954 97.4405 81.8783 98.7302C84.6149 101.285 86.3675 105.396 88.3681 107.308C87.607 101.052 83.0429 96.7328 78.2586 94.1034C77.7532 93.825 77.0262 93.6782 76.7838 93.109C77.5346 92.2481 78.8739 93.2562 79.6538 93.4988C86.4411 95.6096 93.8787 102.444 95.9564 109.418C96.7444 112.064 96.9325 116.019 95.8732 118.329C95.0868 120.043 93.0031 122.028 90.4901 121.095C85.6382 119.294 84.4117 111.859 81.917 106.566C79.5851 101.613 75.9025 99.4121 73.1964 96.141" fill="white"/>
<path fill-rule="evenodd" clip-rule="evenodd" d="M91.7343 47.1058C89.9401 45.5242 89.9935 42.7012 89.4379 40.4535C87.7278 33.5159 84.937 27.0127 82.7373 20.6637C83.2707 30.0184 87.3371 37.0876 89.3354 45.4464C87.9231 44.9217 87.6363 43.0807 87.1918 41.8146C85.7099 37.5919 84.1553 33.4376 82.6272 29.0414C80.6133 23.2509 77.9797 17.2957 76.9303 11.5157C76.455 8.90255 75.779 5.35666 77.423 3.65318C82.238 2.69303 84.4029 8.30329 85.6995 12.3195C87.1195 16.7164 87.8839 22.8267 88.8356 28.549C89.988 35.4688 91.0718 41.3997 91.7343 47.1058" fill="white"/>
<path fill-rule="evenodd" clip-rule="evenodd" d="M78.8461 81.0702C78.7844 78.2953 78.9534 75.5395 79.3297 73.0287C79.5126 71.8154 79.5818 70.0695 80.7672 69.7503C82.0657 73.9359 81.2204 79.0775 78.8461 81.0702" fill="white"/>
<path fill-rule="evenodd" clip-rule="evenodd" d="M78.5813 68.7919C77.4465 70.0832 77.0699 72.0605 76.7101 74.0525C75.6658 72.3312 74.5367 70.7039 72.9222 69.6126C73.0552 67.7546 73.682 66.3425 73.5407 64.2376C75.0957 65.8929 76.4384 67.7864 78.5813 68.7919" fill="white"/>
<path fill-rule="evenodd" clip-rule="evenodd" d="M77.4652 88.9778C76.1993 87.2822 77.2083 84.8505 78.4572 83.94C79.1778 85.9921 77.557 87.1233 77.4652 88.9778Z" fill="white"/>
<path fill-rule="evenodd" clip-rule="evenodd" d="M74.2842 117.64C73.8859 118.979 73.678 121.387 74.0109 122.82C74.9609 122.043 75.9009 118.591 74.2842 117.64ZM63.1579 98.43C64.2703 97.8293 65.6623 98.5332 67.0662 98.2323C71.2137 101.837 72.4773 108.631 74.4856 114.602C75.4541 109.918 73.8246 104.15 71.4753 100.859C70.6334 99.6815 69.2754 99.0696 69.0032 97.7786C71.4668 95.8631 72.524 98.0765 74.1129 100.192C75.0562 101.447 75.7156 102.579 76.444 103.993C78.1791 107.363 79.0356 110.938 79.4529 114.173C80.0668 118.945 78.7675 121.552 77.2993 124.435C76.1785 126.636 74.8397 130.467 71.1553 129.734C69.2267 129.35 67.3692 125.752 67.0824 123.17C66.1273 114.584 66.5335 104.642 63.1579 98.43" fill="white"/>
<path fill-rule="evenodd" clip-rule="evenodd" d="M75.3948 44.5491C73.7713 43.7013 71.1304 42.2986 74.5233 41.3864C74.9785 42.2577 75.205 43.3821 75.3948 44.5491Z" fill="#75353B"/>
<path fill-rule="evenodd" clip-rule="evenodd" d="M37.5325 63.7434C35.2723 64.0075 36.6758 67.5259 39.0895 66.3368C39.608 64.7643 38.5796 63.6211 37.5325 63.7434ZM40.4838 79.8044C45.8349 82.95 45.5616 73.8793 40.7031 77.1207C40.2806 77.7146 40.0312 78.9329 40.4838 79.8044ZM46.0827 84.8655C46.1045 86.5108 49.6794 87.085 49.1042 84.7127C48.6625 82.8961 46.0601 83.0997 46.0827 84.8655ZM46.9205 73.2437C46.7554 73.4898 46.6547 73.7949 46.4238 73.9812C46.5485 74.9684 47.0614 75.5269 48.2721 75.313C49.2386 74.5714 48.5145 72.7939 46.9205 73.2437V73.2437ZM52.5859 69.0386C50.7575 68.8395 50.1362 71.8889 53.0583 71.33C53.9955 70.4864 53.7269 69.1617 52.5859 69.0386V69.0386ZM52.7635 83.1022C53.7495 83.9092 56.122 83.5946 56.6538 82.5487C57.109 78.8538 51.0683 79.6261 52.7635 83.1022ZM56.7446 70.2529C57.3831 70.7884 59.2266 70.9418 59.9522 70.2688C62.2642 65.9899 54.3593 66.541 56.7446 70.2529ZM62.0769 87.6186C61.1208 87.218 60.2027 87.8329 60.176 88.7828C60.3294 89.4415 61.5247 89.6862 62.1578 89.2181C62.4892 88.8285 62.234 88.031 62.0769 87.6186ZM57.1015 73.7977C56.7915 76.4834 58.6316 77.0469 60.7995 76.4606C63.7986 73.862 58.854 70.808 57.1015 73.7977ZM62.3848 83.15C61.0853 83.2188 59.9859 83.4689 60.1554 84.8659C61.271 86.5204 64.2134 84.5661 62.3848 83.15ZM61.7623 81.4C64.9583 82.2161 66.5735 77.5426 62.9763 77.2412C62.2336 77.1791 61.2562 77.5723 60.5158 77.8997C60.0667 79.8671 60.7506 81.1415 61.7623 81.4V81.4ZM71.185 91.6115C71.9623 87.3953 67.0781 87.6487 65.7466 89.7489C65.0294 93.3852 70.1015 93.8137 71.185 91.6115ZM48.4591 61.4092C45.7324 61.8982 43.5793 64.4378 41.7721 66.5578C40.2295 68.3667 38.3813 69.8594 37.946 71.9168C37.778 72.7134 37.9985 73.6143 37.8947 74.4127C37.7926 75.1923 37.0114 78.8553 38.8306 78.819C40.0069 78.796 39.8655 77.7163 39.77 76.2782C43.8091 72.8055 48.4582 69.8862 51.3305 65.3613C53.7526 66.6082 55.5756 64.299 57.6827 64.1492C60.4124 63.9542 63.5246 66.4142 65.8486 67.1206C64.849 72.6949 66.4913 79.2698 68.9771 83.1726C67.7409 83.4109 67.2948 85.4923 68.5792 85.8643C69.7499 86.2051 70.2017 84.8696 71.0218 84.8505C72.9121 85.218 70.5541 87.8499 71.9113 88.3679C74.1286 88.3627 73.5148 86.4172 73.5003 84.5464C73.4917 83.4808 73.8798 82.5761 73.7017 81.5083C73.2805 78.9618 71.5967 77.2681 70.5633 75.7888C71.5873 74.6808 72.2446 73.2396 72.4795 71.4165C75.5481 73.4625 75.9807 78.4236 76.9735 82.7681C72.8019 85.0709 76.5974 90.8239 73.6122 93.8045C72.2727 95.1417 67.3466 95.83 64.4363 95.5152C63.2093 95.3822 61.2154 94.8933 59.3971 94.5238C52.2869 93.0771 47.0656 89.2516 41.9523 84.1838C38.5411 80.8029 34.6385 76.5217 33.8426 71.7677C33.518 69.8384 33.5683 67.4823 34.2647 66.0464C34.6988 65.1541 36.3921 63.2109 37.4695 62.4992C40.096 60.7663 44.3394 60.6476 48.4591 61.4092" fill="#FBBF2A"/>
<path fill-rule="evenodd" clip-rule="evenodd" d="M71.1463 41.5572C70.0211 41.1145 69.1779 40.3583 68.0363 39.9336C69.1293 38.6606 70.0392 37.2226 72.1563 36.8752C72.4714 38.0899 73.2859 38.7512 73.5618 40.0097C72.5365 40.3265 71.868 40.9658 71.1463 41.5572" fill="#F79814"/>
<path fill-rule="evenodd" clip-rule="evenodd" d="M71.0101 35.3296C69.2283 36.262 67.6662 37.3949 66.374 38.7698C65.2617 38 64.1341 37.2456 62.8815 36.6321C64.2771 34.9532 66.0884 33.6526 68.2004 32.6217C69.5348 33.084 69.993 34.5148 71.0101 35.3296" fill="#75353B"/>
<path fill-rule="evenodd" clip-rule="evenodd" d="M71.2609 54.3768C71.1049 55.8068 71.7852 57.8537 71.5036 59.1748C71.0851 61.1406 67.8549 63.3687 66.9934 65.103C64.9856 64.2607 63.1485 63.2298 60.6489 62.9301C64.5225 60.3833 68.0981 57.5672 71.2609 54.3768Z" fill="white"/>
<path fill-rule="evenodd" clip-rule="evenodd" d="M71.8515 62.5411C71.5956 67.1136 70.8962 71.2855 68.697 74.1024C66.7791 69.4699 69.4911 64.9672 71.8515 62.5411Z" fill="white"/>
<path fill-rule="evenodd" clip-rule="evenodd" d="M71.4106 81.981C69.9583 80.5859 68.8473 78.8133 67.9423 76.8116C67.9995 76.4108 68.8149 76.6955 69.1771 76.5713C69.8503 78.4527 71.152 79.6395 71.4106 81.981Z" fill="white"/>
<path fill-rule="evenodd" clip-rule="evenodd" d="M69.8041 53.7381C69.8679 54.0232 69.6505 54.0529 69.6526 54.2803C64.2641 57.0446 59.3483 64.6407 50.8144 62.1808C52.3235 60.9754 54.1543 61.1696 55.7252 60.686C58.608 59.7974 61.4922 58.1731 64.0744 56.7C65.834 55.6979 66.9645 54.3458 69.2701 53.7651C69.4485 53.7561 69.6256 53.7471 69.8041 53.7381" fill="white"/>
<path fill-rule="evenodd" clip-rule="evenodd" d="M67.2403 31.2446C65.0622 32.499 62.9204 33.7838 61.5929 35.8061C60.0558 35.1913 58.6732 34.4097 57.044 33.8986C58.7623 31.3684 63.8035 28.81 67.2403 31.2446" fill="#F79814"/>
<path fill-rule="evenodd" clip-rule="evenodd" d="M69.1955 90.9997C68.5333 91.4989 67.4594 91.1204 67.2137 90.5655C67.2988 90.1898 67.5575 89.9712 67.7014 89.6501C68.3355 89.8866 69.7091 90.0934 69.1955 90.9997Z" fill="white"/>
<path fill-rule="evenodd" clip-rule="evenodd" d="M65.4683 52.5327C63.5349 53.1598 60.9928 53.2368 58.7516 53.5849C58.7036 52.637 58.6557 51.6898 58.6077 50.7421C60.9384 51.2896 63.0175 52.1169 65.4683 52.5327Z" fill="#F79814"/>
<path fill-rule="evenodd" clip-rule="evenodd" d="M62.459 28.2808C59.8452 29.7616 56.669 30.7348 55.4164 33.4458C53.9662 33.175 52.7056 32.6939 50.9305 32.7826C52.1549 30.3843 54.2593 28.7828 56.158 26.9955C58.6604 26.9785 60.6483 27.5329 62.459 28.2808Z" fill="#75353B"/>
<path fill-rule="evenodd" clip-rule="evenodd" d="M63.6092 79.1683C63.5125 79.8168 62.9024 80.0004 62.0446 79.9604C61.7781 79.6272 61.4074 78.8449 61.7865 78.3698C62.5888 78.4216 63.0358 78.8636 63.6092 79.1683" fill="white"/>
<path fill-rule="evenodd" clip-rule="evenodd" d="M49.0102 121.591C47.8072 121.668 47.0253 122.916 47.5291 123.981C48.8412 124.004 49.5098 122.653 49.0102 121.591ZM50.6818 94.7858C52.8637 95.3748 54.6637 96.3846 56.5117 97.3414C57.2432 107.101 53.232 112.576 50.4926 119.2C55.9947 115.356 58.611 107.434 58.3151 97.7847C59.1905 98.0674 60.4084 97.9698 61.1941 98.3514C62.7829 103.078 63.4192 109.003 61.2921 114.378C60.7478 115.759 59.9499 117.061 59.3579 118.395C58.6473 119.999 58.2559 121.577 57.6099 122.581C55.6124 125.69 48.6385 130.288 44.9697 126.249C43.0978 124.187 42.9722 120.412 43.6333 117.409C45.3168 109.757 50.7695 103.775 50.6818 94.7858" fill="white"/>
<path fill-rule="evenodd" clip-rule="evenodd" d="M60.336 74.3464C60.2382 75.2092 59.0283 75.5197 58.4081 74.9785C58.3932 74.6825 58.3782 74.386 58.3632 74.0895C58.9738 73.5987 59.9589 73.9899 60.336 74.3464Z" fill="white"/>
<path fill-rule="evenodd" clip-rule="evenodd" d="M58.7969 68.5466C58.8089 68.7821 58.8209 69.0198 58.8329 69.2571C58.1934 69.3369 57.6047 69.3636 57.7303 68.6005C58.0845 68.5826 58.4401 68.5646 58.7969 68.5466Z" fill="white"/>
<path fill-rule="evenodd" clip-rule="evenodd" d="M57.1496 50.1035C56.9431 51.2728 56.4092 52.1467 56.6196 53.6928C55.7934 53.6693 54.962 53.6509 54.2912 53.4538C53.9107 51.8971 54.3242 50.8593 54.4401 49.3499C55.581 49.3386 56.3222 49.7684 57.1496 50.1035" fill="#75353B"/>
<path fill-rule="evenodd" clip-rule="evenodd" d="M53.3478 48.8707C52.8335 50.1587 52.364 51.4863 52.3184 53.1981C49.2769 53.3755 47.7453 50.52 48.8155 47.3186C50.526 47.6148 51.7927 48.4013 53.3478 48.8707Z" fill="#F79814"/>
<path fill-rule="evenodd" clip-rule="evenodd" d="M54.8325 81.7506C54.9152 82.4624 53.4012 82.2246 53.7478 81.4493C54.2661 81.3761 54.3141 81.8233 54.8325 81.7506Z" fill="white"/>
<path fill-rule="evenodd" clip-rule="evenodd" d="M40.1422 73.0527C41.6774 68.6189 44.4158 65.2721 48.9225 63.5233C49.1129 63.7511 49.1237 64.176 49.4911 64.207C47.1914 67.7804 42.6397 70.2223 40.1422 73.0527Z" fill="white"/>
<path fill-rule="evenodd" clip-rule="evenodd" d="M47.713 46.662C47.2155 47.9637 46.6173 49.1763 46.8725 51.1581C45.7233 50.9273 45.1255 50.0871 44.1256 49.6934C43.9364 47.8267 44.0773 46.2576 44.4155 44.869C45.5872 45.3859 46.4921 46.1996 47.713 46.662Z" fill="#75353B"/>
<path fill-rule="evenodd" clip-rule="evenodd" d="M46.3416 26.6019C41.5161 30.493 37.3298 34.9617 38.1339 43.9399C37.0687 42.2285 34.9523 40.8759 34.667 38.7721C34.0487 34.2303 40.258 28.8477 42.7888 26.7817C43.9726 26.7218 45.1578 26.6618 46.3416 26.6019" fill="#75353B"/>
<path fill-rule="evenodd" clip-rule="evenodd" d="M30.8993 112.176C29.761 112.504 29.9393 114.021 29.9945 115.428C31.3675 115.336 31.3888 112.907 30.8993 112.176ZM43.4373 88.9173C37.8656 94.3402 32.5191 100.866 31.6795 109.998C34.2058 106.733 35.1539 102.541 37.1805 99.0319C39.2377 95.4687 41.9541 92.6913 44.3628 89.5829C44.9235 90.2414 48.4505 91.7156 48.1134 93.3128C46.6503 100.254 42.6785 111.335 37.1733 116.49C35.1529 118.381 31.0718 120.125 28.3978 119.072C27.0997 118.56 26.3773 117.026 25.0555 116.391C22.6663 105.926 28.482 95.0872 33.6659 89.4117C35.0726 87.8725 37.1328 85.6344 39.9089 86.0681C41.4645 86.3106 42.3554 87.7705 43.4373 88.9173Z" fill="#FBBF2A"/>
<path fill-rule="evenodd" clip-rule="evenodd" d="M43.2962 43.8565C42.9912 45.1642 42.3882 46.2012 42.4274 47.8196C41.2143 47.7234 40.9659 46.5605 40.0284 46.1595C40.3869 44.5382 40.1745 43.0304 40.3004 40.9802C41.2046 42.0443 41.9406 43.2915 43.2962 43.8565" fill="#F79814"/>
<path fill-rule="evenodd" clip-rule="evenodd" d="M42.5694 78.8078C42.2738 78.8227 41.9781 78.8377 41.6825 78.8526C41.4964 78.341 41.4951 78.3156 41.6286 77.7873C42.1242 77.9259 42.3987 78.3095 42.5694 78.8078Z" fill="white"/>
<path fill-rule="evenodd" clip-rule="evenodd" d="M39.0756 27.3262C36.7113 29.9934 33.8967 32.2541 32.9315 36.1871C30.4197 34.4597 28.5462 31.3905 31.703 29.4802C33.5903 28.337 37.0608 27.9288 39.0756 27.3262Z" fill="#F79814"/>
<path fill-rule="evenodd" clip-rule="evenodd" d="M38.7478 59.5846C37.8615 59.0599 37.8621 57.9633 37.3783 57.16C36.004 54.8814 33.6514 52.8972 31.3775 51.2291C27.921 48.6938 24.4573 45.8058 19.6651 45.0522C26.8609 48.5342 33.1579 53.0123 36.829 60.3941C36.2134 60.6291 35.581 60.8489 35.2746 61.364C32.0477 58.1954 28.2451 55.6009 22.7702 53.6239C19.6697 52.5041 13.6486 50.5507 13.6954 46.7795C13.7243 44.4469 19.2655 40.5844 22.8341 40.7955C29.4128 41.1833 37.9248 50.0468 39.1367 56.7149C39.2807 57.504 40.1098 59.1403 38.7478 59.5846" fill="white"/>
<path fill-rule="evenodd" clip-rule="evenodd" d="M15.4862 99.7733C18.9323 98.1977 20.2966 94.7378 22.2066 91.7735C22.2006 91.6548 22.1946 91.5368 22.1886 91.4177C19.1906 93.513 17.3259 96.6331 15.4862 99.7733ZM35.3304 80.0651C30.9853 82.1854 27.0921 84.7149 24.5322 88.449C28.1836 86.6039 31.0482 82.5838 35.926 81.2819C36.8678 81.7422 37.3568 82.7005 37.9976 83.4926C38.0386 83.6418 37.9369 83.6641 37.8295 83.68C33.2963 85.6969 30.273 89.6662 27.1303 94.0182C24.2755 97.9679 20.9713 102.954 16.8032 104.694C14.0131 105.859 10.8164 103.999 10.2366 101.643C9.44011 98.4072 12.1183 93.9505 13.4914 92.0361C16.8572 87.3439 22.4211 82.7156 28.9152 80.033C30.7761 79.2651 33.9493 77.4654 35.3304 80.0651" fill="white"/>
<path fill-rule="evenodd" clip-rule="evenodd" d="M32.8861 63.4436C31.8417 64.069 30.5934 63.0136 29.2793 62.5575C25.5303 61.2598 18.6643 61.4732 15.2786 63.9788C20.8406 63.2969 27.8031 62.3266 31.7232 65.1059C31.4636 65.8315 31.3621 66.7024 31.129 67.452C22.6841 65.6953 10.1463 73.5759 5.95124 66.2326C4.95097 59.2337 11.6645 57.3533 18.3127 57.0557C24.9355 56.7597 29.7397 60.4163 32.8591 62.9109C32.8681 63.0888 32.8771 63.2668 32.8861 63.4436" fill="#FBBF2A"/>
<path fill-rule="evenodd" clip-rule="evenodd" d="M33.3922 76.9566C33.4318 77.1058 33.3314 77.1281 33.2227 77.1435C27.0626 76.8747 22.7124 81.2146 18.23 83.6025C15.4844 85.0661 8.1016 87.3341 7.33791 83.085C6.95153 80.9368 9.18178 78.3656 10.0793 77.4237C14.5086 72.7721 22.3804 70.3258 31.0598 69.5931C30.8947 70.658 31.559 71.5704 31.1947 72.2584C26.2873 72.2888 22.9648 73.7502 20.5183 76.0043C23.914 75.5691 27.0135 73.3967 31.6131 73.4842C31.9794 74.892 32.5505 76.074 33.3922 76.9566" fill="white"/>
<path fill-rule="evenodd" clip-rule="evenodd" d="M101.861 74.7398C99.7903 74.3965 96.3516 74.9856 94.9954 76.334C95.1532 74.7829 100.523 71.5674 101.861 74.7398Z" fill="white"/>
<path fill-rule="evenodd" clip-rule="evenodd" d="M47.3444 39.377C49.2855 39.9817 51.8369 40.9097 53.8314 40.8296C52.6217 39.5584 49.1035 38.2058 47.3444 39.377ZM60.2736 44.9573C61.745 45.5947 64.3165 46.9712 65.8634 46.2776C64.2395 45.7913 62.0216 44.069 60.2736 44.9573ZM44.038 37.4066C45.2098 35.9231 47.0262 35.3842 49.6431 35.5199C57.5123 35.9259 64.1986 40.789 70.402 44.4449C73.6013 46.3299 76.7076 48.2238 79.7694 50.0276C82.9701 51.9131 86.061 53.9262 88.7992 55.9836C87.9959 56.2825 87.4843 55.4061 86.7904 55.0162C84.5163 53.7384 81.8025 52.6365 79.3086 51.4757C75.9371 49.9081 72.6259 47.9756 68.7694 47.3779C69.5035 48.4829 71.1263 49.0788 72.448 49.6851C76.5306 51.5594 81.3516 53.3832 85.2194 55.6302C85.6577 55.5851 85.5313 55.8319 85.2284 55.8076C76.3885 53.1571 64.0011 49.8669 54.3053 46.685C51.2344 45.6765 47.2439 44.4088 45.3473 42.1496C44.3288 40.938 43.6834 39.0537 44.038 37.4066" fill="white"/>
<path fill-rule="evenodd" clip-rule="evenodd" d="M50.333 59.7108C49.8561 59.2557 50.875 56.7546 50.1173 55.4465C53.0979 56.2016 57.4389 56.8497 61.0004 55.7871C61.3992 56.2289 59.7038 56.5989 58.9224 56.9608C56.603 58.0335 53.0404 59.4707 50.333 59.7108" fill="white"/>
<path fill-rule="evenodd" clip-rule="evenodd" d="M53.645 26.5891C51.8845 28.4461 49.8233 30.0304 48.7792 32.5353C45.4029 32.5356 42.6198 33.0733 41.612 35.2139C41.9204 32.6018 44.8678 30.4026 47.1426 28.3429C47.8332 27.7165 48.7281 26.6174 49.3617 26.4491C50.637 26.1113 52.1979 26.8809 53.645 26.5891" fill="#F79814"/>
<path fill-rule="evenodd" clip-rule="evenodd" d="M48.482 54.8169C48.7168 56.5556 48.462 57.8519 48.3512 59.277C47.4479 59.3394 46.9275 58.9757 46.0241 59.038C45.707 57.3874 45.9133 55.158 45.2295 53.9123C44.6607 55.2056 45.2986 57.3105 45.4812 58.8877C44.296 58.9477 43.1122 59.0076 41.9271 59.0675C41.8175 53.4977 39.3564 50.5302 37.2304 47.1923C36.9705 46.9916 37.2109 47.1234 37.4075 47.1834C40.5924 50.2883 43.766 53.407 48.482 54.8169" fill="white"/>
</svg>
