<svg width="262" height="151" viewBox="0 0 262 151" fill="none" xmlns="http://www.w3.org/2000/svg">
<path fill-rule="evenodd" clip-rule="evenodd" d="M65.901 94.9829C62.0503 94.1776 58.9236 92.7069 56.3956 90.4482C46.5436 81.6429 44.7956 66.1949 41.7076 49.8389C40.1623 41.6482 39.5263 33.3722 38.8996 24.9989C38.249 16.2869 37.8156 7.62421 35.8756 0.158873C34.2543 -0.295794 33.457 0.369555 31.9876 0.374888C29.7383 13.6469 32.3823 28.7135 32.8516 42.0629C25.1116 44.6175 17.253 47.0562 10.3876 50.4869C9.06363 39.2775 7.89429 25.7722 6.06763 13.7669C5.73696 11.5935 4.88228 3.1429 3.25828 2.7509C1.68362 2.3709 1.15696 4.38954 0.235627 5.12554C-0.589706 22.3189 0.867619 40.9096 2.82762 56.7509C2.54629 58.0536 0.524958 57.6162 0.883625 59.5602C1.31563 60.6802 3.07028 59.1575 3.04228 59.9909C4.45962 71.5082 5.15695 84.4202 7.79562 94.9829C8.37429 97.2989 9.57162 103.968 12.5476 103.624C14.4476 103.406 14.7383 100.283 14.9236 98.0069C15.4583 91.4549 13.813 84.8109 13.1956 77.9202C12.585 71.0989 11.4103 64.4815 11.2516 57.8322C18.1956 54.7669 25.7276 51.1402 33.2836 49.4069C34.6956 63.6309 37.0476 80.6949 44.949 90.4482C45.725 91.4056 47.2036 92.3349 48.4036 93.4722C51.6543 96.5535 56.2916 99.9935 61.5796 100.168C64.0596 100.25 68.5436 99.5215 68.7076 98.0069C68.8823 96.4029 66.3783 96.4389 65.901 94.9829" fill="#422123"/>
<path fill-rule="evenodd" clip-rule="evenodd" d="M116.229 57.8322C116.834 47.8669 105.84 42.1002 100.029 38.6069C98.7196 35.1642 96.2543 32.8776 93.549 30.8309C96.397 25.6669 92.189 19.9829 87.717 18.7349C88.7103 14.9042 89.401 9.62025 92.0356 8.15092C91.9263 9.55759 92.0543 10.7256 92.685 11.3909C97.153 13.6856 97.4823 6.5269 94.4129 5.5589C86.9343 4.5789 87.3956 13.3616 85.1236 18.3029C83.805 18.1362 83.1036 18.5856 81.885 18.5189C81.8223 12.6056 79.545 8.90689 76.053 6.42289C73.013 6.15223 70.4156 6.79225 69.573 9.01492C68.733 11.2283 69.665 14.9162 71.949 14.8469C75.641 14.7349 72.805 9.82558 74.3236 8.58292C78.385 9.92292 78.9143 14.7922 79.7249 19.3829C75.6156 20.3242 73.913 26.6069 75.6196 31.2629C72.705 31.8656 71.561 35.1469 69.357 36.6629C67.4836 37.9496 64.8089 38.4136 62.6596 39.6869C55.4276 43.9776 47.7636 49.1869 49.2676 60.8549C49.5276 62.8669 52.3716 66.1136 53.8036 66.9029C58.6836 69.6002 63.6716 66.2309 67.1956 63.4482C68.1209 68.1416 71.269 70.4829 74.3236 73.3842C76.753 75.6882 78.537 77.5269 81.885 77.9202C93.0183 79.2295 96.7663 70.2042 100.461 63.4482C102.965 65.2269 106.958 67.7696 111.477 66.2549C114.404 65.2749 116.018 61.3056 116.229 57.8322Z" fill="#422123"/>
<path fill-rule="evenodd" clip-rule="evenodd" d="M162.668 69.4962C163.238 77.4535 168.48 84.5508 174.118 87.8548C176.324 89.1482 180.069 90.6789 184.701 90.2322C187.87 89.9242 190.804 88.1015 193.126 86.5602C194.197 85.8482 199.654 81.1109 195.501 79.4309C193.9 78.7842 191.52 80.3722 190.102 81.1602C188.361 82.1255 186.916 83.5175 184.918 83.7522C180.954 84.2175 176.048 81.7989 173.902 79.4309C170.701 75.9029 169.993 69.7762 170.23 63.6629C174.189 63.9122 177.405 65.7815 181.894 64.9588C185.173 64.3588 189.126 60.6962 190.968 57.6162C194.944 50.9442 194.089 41.5509 189.886 36.8789C183.14 29.3789 171.058 33.9442 167.206 39.9029C164.29 44.4109 164.222 50.1855 163.1 56.5349C162.238 58.4469 160.056 57.7535 160.077 59.7762C160.1 61.7922 162.348 61.1575 162.884 62.5842C163.744 64.8669 162.506 67.2242 162.668 69.4962" fill="#422123"/>
<path fill-rule="evenodd" clip-rule="evenodd" d="M160.509 88.0708C158.965 86.0268 156.22 88.1362 153.813 87.6402C150.824 87.0242 149.113 79.3015 148.845 74.4628C148.7 71.8508 149.282 69.4095 149.277 67.3348C149.256 57.4628 149.332 43.5775 144.092 39.4708C141.373 37.3388 136.269 37.2908 132.644 38.6068C130.045 39.5508 128.824 42.0855 126.597 42.4948C126.588 40.2002 126.806 37.6762 124.869 37.3109C123.638 38.6602 122.953 37.1802 121.629 37.9588C119.089 49.5935 119.036 66.1135 119.036 80.5108C119.037 85.2082 118.269 90.7628 121.629 93.0402C126.31 89.2775 125.842 80.2735 126.165 71.6548C126.421 64.8388 126.801 57.7522 126.597 51.5668C128.116 50.3495 129.23 48.1682 131.566 47.2482C133.613 46.4389 137.796 45.9362 139.558 47.0322C141.668 48.3428 143.152 56.1122 143.23 60.6388C143.324 66.2495 142.421 71.2308 142.798 76.4068C143.204 81.9815 144.977 87.6335 146.902 90.2322C149.858 94.2242 159.936 96.0735 160.509 88.0708" fill="#422123"/>
<path fill-rule="evenodd" clip-rule="evenodd" d="M208.246 39.9028C208.03 39.9028 207.813 39.9028 207.597 39.9028C205.482 41.7308 203.152 50.1908 205.222 53.2962C211.35 54.0975 208.53 43.4815 208.246 39.9028Z" fill="#422123"/>
<path fill-rule="evenodd" clip-rule="evenodd" d="M255.55 44.4389C257.006 45.1122 256.876 47.5002 258.79 47.2482C260.777 46.9842 260.332 43.4522 259.222 42.0629C256.197 38.2736 247.577 42.1536 251.662 45.9509C253.517 46.0056 254.225 44.9149 255.55 44.4389Z" fill="#422123"/>
<path fill-rule="evenodd" clip-rule="evenodd" d="M248.856 57.1842C250.782 55.0802 250.832 51.0975 251.878 48.1109C247.022 44.7215 243.392 56.6855 248.856 57.1842Z" fill="#422123"/>
<path fill-rule="evenodd" clip-rule="evenodd" d="M257.709 56.9668C258.402 57.2842 258.985 57.7069 260.088 57.6162C261.14 55.8255 261.873 52.0228 260.949 49.6228C256.425 47.7802 256.509 54.3388 257.709 56.9668Z" fill="#422123"/>
<path fill-rule="evenodd" clip-rule="evenodd" d="M208.678 66.9029C209.629 64.0042 208.256 59.8922 208.246 56.5349C203.056 53.2069 203.522 67.5789 208.678 66.9029Z" fill="#422123"/>
<path fill-rule="evenodd" clip-rule="evenodd" d="M247.342 70.7908C250.356 70.1068 247.962 63.6575 248.64 60.2069C247.973 59.6949 247.553 59.1388 246.477 59.5602C244.97 61.3762 243.309 71.7068 247.342 70.7908Z" fill="#422123"/>
<path fill-rule="evenodd" clip-rule="evenodd" d="M256.2 69.2802C259.048 69.8015 260.861 61.9908 260.088 60.4228C256.206 58.4962 253.261 68.7415 256.2 69.2802Z" fill="#422123"/>
<path fill-rule="evenodd" clip-rule="evenodd" d="M206.949 71.0069C207.129 73.4975 207.457 74.9429 208.894 76.8389C209.944 78.2255 214.088 80.7669 214.725 77.9202C215.022 76.6055 213.473 75.5855 212.566 74.4629C210.897 72.3975 209.97 69.3469 206.949 71.0069Z" fill="#422123"/>
<path fill-rule="evenodd" clip-rule="evenodd" d="M248.64 75.3269C246.6 69.8215 244.921 77.3482 244.749 80.0789C241.277 80.2069 239.477 82.0069 237.837 83.9682C238.274 84.8269 239.252 85.1455 239.782 85.9122C241.894 86.0815 243.197 85.4375 244.749 85.0482C246.952 90.0095 249.868 83.0415 249.072 78.9989C251.848 79.3482 256.045 74.4829 255.766 72.9509C255.116 69.4042 249.561 74.2189 248.64 75.3269" fill="#422123"/>
<path fill-rule="evenodd" clip-rule="evenodd" d="M224.23 84.1829C224.416 82.1056 218.689 79.0282 217.102 79.6469C216.244 79.9829 215.829 80.6642 215.806 81.3762C215.692 84.8189 223.902 87.8909 224.23 84.1829Z" fill="#422123"/>
<path fill-rule="evenodd" clip-rule="evenodd" d="M84.6929 81.5909C78.9756 80.1615 81.9183 91.3149 84.0436 91.5269C87.1609 91.8389 86.5343 83.1162 84.6929 81.5909Z" fill="#422123"/>
<path fill-rule="evenodd" clip-rule="evenodd" d="M228.118 83.1042C224.358 84.1335 226.97 86.7082 229.197 87.6402C232.14 88.8682 236.758 88.0802 235.894 84.6162C235.425 82.7375 230.621 82.4189 228.118 83.1042Z" fill="#422123"/>
<path fill-rule="evenodd" clip-rule="evenodd" d="M239.782 99.0882C240.378 99.5696 240.818 100.212 242.157 99.9509C243.738 97.0883 246.233 93.0109 245.397 89.1522C241.569 89.5282 239.876 94.9749 239.782 99.0882Z" fill="#422123"/>
<path fill-rule="evenodd" clip-rule="evenodd" d="M88.1489 105.352C89.9916 102.623 87.5836 92.6949 83.6129 96.4962C84.1942 99.5615 84.4449 105.794 88.1489 105.352Z" fill="#422123"/>
<path fill-rule="evenodd" clip-rule="evenodd" d="M238.269 102.112C235.976 102.195 229.853 110.684 234.813 110.968C237.37 111.114 241.788 101.986 238.269 102.112Z" fill="#422123"/>
<path fill-rule="evenodd" clip-rule="evenodd" d="M88.3649 107.728C84.7503 109.114 91.0916 118.006 92.9009 117.664C94.6889 117.326 94.2529 114.632 93.1156 112.263C92.1596 110.271 90.7049 106.83 88.3649 107.728" fill="#422123"/>
<path fill-rule="evenodd" clip-rule="evenodd" d="M230.064 112.048C230.017 112.06 229.214 112.283 228.98 112.479C227.842 113.443 221.646 120.476 226.173 120.904C227.782 121.056 232.686 114.527 232.654 113.127C232.616 111.561 230.668 111.888 230.064 112.048Z" fill="#422123"/>
<path fill-rule="evenodd" clip-rule="evenodd" d="M97.4356 118.96C93.0782 118.052 94.8422 122.62 96.1409 123.927C97.3676 125.166 98.9889 126.508 100.893 126.736C100.941 126.568 101.073 126.484 101.325 126.52C102.925 123.878 98.7289 119.228 97.4356 118.96" fill="#422123"/>
<path fill-rule="evenodd" clip-rule="evenodd" d="M221.856 121.12C220.1 121.356 215.78 125.334 216.238 127.816C218.217 129.964 219.928 127.583 221.637 126.088C223.449 124.503 226.35 120.513 221.856 121.12" fill="#422123"/>
<path fill-rule="evenodd" clip-rule="evenodd" d="M104.565 127.168C103.178 127.611 102.488 128.558 103.268 130.624C103.789 132.003 108.156 134.536 109.316 134.296C110.088 134.136 110.706 133.494 110.829 132.568C111.136 130.256 106.105 126.675 104.565 127.168" fill="#422123"/>
<path fill-rule="evenodd" clip-rule="evenodd" d="M211.918 129.544C209.73 130.827 204.922 133.322 204.79 136.455C205.418 136.598 206.274 137.015 207.165 136.888C208.522 136.694 214.512 132.275 214.296 130.84C214.173 130.044 212.7 129.086 211.918 129.544Z" fill="#422123"/>
<path fill-rule="evenodd" clip-rule="evenodd" d="M113.853 133.216C112.844 133.69 112.541 134.244 112.773 135.591C113.272 138.499 120.924 140.956 120.981 137.32C121.014 135.162 116.018 132.198 113.853 133.216" fill="#422123"/>
<path fill-rule="evenodd" clip-rule="evenodd" d="M199.821 137.32C197.968 138.006 192.616 139.474 193.126 142.504C194.316 144.851 202.252 140.394 201.98 138.616C201.87 137.892 200.684 137.002 199.821 137.32" fill="#422123"/>
<path fill-rule="evenodd" clip-rule="evenodd" d="M123.141 139.264C122.537 142.882 128.681 143.966 131.348 143.584C135.488 139.914 123.845 135.047 123.141 139.264Z" fill="#422123"/>
<path fill-rule="evenodd" clip-rule="evenodd" d="M133.506 144.232C133.54 146.979 139.774 147.478 141.717 147.256C145.381 143.303 133.46 139.802 133.506 144.232Z" fill="#422123"/>
<path fill-rule="evenodd" clip-rule="evenodd" d="M181.676 144.448C179.801 148.166 184.184 147.538 186.43 146.824C188.46 146.18 190.621 145.516 190.318 143.8C189.798 140.851 183.316 143.772 181.676 144.448" fill="#422123"/>
<path fill-rule="evenodd" clip-rule="evenodd" d="M144.957 147.04C145.144 149.659 151.422 150.179 153.813 148.984C155.46 144.323 144.67 143.003 144.957 147.04Z" fill="#422123"/>
<path fill-rule="evenodd" clip-rule="evenodd" d="M173.902 145.528C171.706 145.66 167.244 145.484 168.285 148.552C168.977 150.596 177.977 149.76 177.358 146.608C177.048 145.039 176.045 145.399 173.902 145.528Z" fill="#422123"/>
<path fill-rule="evenodd" clip-rule="evenodd" d="M157.053 149.848C158.425 151.687 163.446 150.818 165.477 150.064C168.146 145.567 155.706 144.471 157.053 149.848Z" fill="#422123"/>
<path fill-rule="evenodd" clip-rule="evenodd" d="M89.8769 29.3189C86.6009 27.8362 82.4129 29.3362 79.0755 29.7509C78.3582 27.7296 78.7182 24.9136 79.7249 23.7029C82.9835 19.7749 93.7849 24.1709 89.8769 29.3189" fill="#F79814"/>
<path fill-rule="evenodd" clip-rule="evenodd" d="M92.4689 35.1508C87.7956 35.5748 82.8609 34.3921 77.9956 34.2868C81.7969 30.8628 88.9703 32.8775 92.4689 35.1508Z" fill="#F79814"/>
<path fill-rule="evenodd" clip-rule="evenodd" d="M58.5569 56.1029C59.7036 56.4402 60.2675 54.9175 60.9315 54.1589C62.6595 52.1842 64.6475 50.2735 65.6835 47.8949C65.8035 47.8962 65.9302 47.7202 65.6835 47.6789C62.8862 49.9255 59.6916 52.9122 58.5569 56.1029ZM74.1075 38.3909C72.6369 40.0162 70.5822 41.0575 69.7876 43.3589C71.7329 42.6389 73.9156 40.2869 76.0529 39.0389C75.1996 47.2869 70.6342 56.6215 64.8209 61.7202C62.7276 63.5535 59.1862 65.0549 54.8835 64.3109C53.1809 62.3269 51.8609 59.4749 52.7236 55.6709C54.1196 49.5309 61.6129 43.5429 68.0595 40.3349C70.3595 39.1922 71.7329 37.8122 74.1075 38.3909" fill="white"/>
<path fill-rule="evenodd" clip-rule="evenodd" d="M79.0756 39.0389C81.9902 39.5802 85.1156 39.9109 88.3649 40.1189C88.6209 40.7975 89.0929 41.2615 89.2289 42.0629C85.7729 42.0629 82.3156 42.0629 78.8596 42.0629C79.1929 41.3149 79.0502 40.0935 79.0756 39.0389Z" fill="#F79814"/>
<path fill-rule="evenodd" clip-rule="evenodd" d="M97.2209 40.7669C97.2263 40.5575 97.4849 40.5989 97.6516 40.5509C100.86 42.6775 104.882 45.0095 108.237 48.3269C110.228 50.2975 112.998 53.7469 112.557 57.6162C112.166 61.0415 108.601 63.4695 103.917 61.9349C102.622 61.5122 100.774 59.7549 99.8129 58.6962C96.0022 54.4989 94.0383 46.4509 91.8209 41.4149C94.8743 39.4122 96.1956 42.3962 97.8676 44.2229C100.844 47.4722 104.024 52.5375 106.725 55.4549C105.42 49.5602 100.938 44.9695 97.2209 40.7669" fill="white"/>
<path fill-rule="evenodd" clip-rule="evenodd" d="M170.444 56.7509C172.162 51.4856 172.528 39.8536 179.949 40.5509C182.285 40.7709 186.801 41.9415 187.725 43.5749C189.829 47.2842 187.381 54.3562 184.053 56.3189C179.9 58.7682 175.085 57.5309 170.444 56.7509" fill="white"/>
<path fill-rule="evenodd" clip-rule="evenodd" d="M90.9556 48.9749C91.9969 51.3189 93.1263 53.5735 94.1969 55.8869C86.5729 56.1682 80.4129 54.9829 74.3236 53.7269C74.8916 51.9909 75.5636 50.3575 76.4849 48.9749C81.3076 48.9749 86.1329 48.9749 90.9556 48.9749" fill="#F79814"/>
<path fill-rule="evenodd" clip-rule="evenodd" d="M95.9249 62.3668C95.7142 63.3082 95.1755 63.9229 94.8435 64.7429C86.5302 64.2735 76.9649 65.0562 70.6516 62.5842C70.0862 61.0322 70.2422 59.7828 71.0849 58.6962C78.1636 61.1215 86.4075 62.3802 95.9249 62.3668" fill="#F79814"/>
<path fill-rule="evenodd" clip-rule="evenodd" d="M76.9169 69.7122C81.3795 70.1842 85.6542 69.6442 90.3075 69.7122C90.5489 70.2922 89.3942 71.3829 88.5809 71.8709C84.2235 74.4856 78.5569 73.9029 76.9169 69.7122Z" fill="#F79814"/>
</svg>
