<svg width="61" height="106" viewBox="0 0 61 106" fill="none" xmlns="http://www.w3.org/2000/svg">
<path fill-rule="evenodd" clip-rule="evenodd" d="M0.742079 84.6365C1.02075 90.0698 2.03675 96.9071 4.47808 100.115C8.32208 105.164 20.7501 105.246 29.3847 105.452C37.1007 105.636 48.4381 105.871 53.5807 103.139C55.2727 102.24 58.1234 99.1311 58.9181 97.0898C59.6741 95.1485 59.5594 92.4645 59.8074 89.6178C60.0287 87.0671 60.3407 84.3338 60.3407 81.7898C60.3407 67.7378 60.0114 54.4058 59.6301 40.6938C59.5514 37.9098 59.8061 34.9951 59.2727 32.6885C59.1594 32.1925 58.7581 31.8298 58.5621 31.2645C58.3554 30.6671 58.4167 29.8671 58.2061 29.3085C57.4127 27.2018 55.7447 25.4018 54.8261 23.2591C53.5301 20.2391 52.2127 17.2445 52.1581 13.2965C55.7314 12.3631 55.9194 7.49911 55.3594 2.97644C52.0874 0.715106 46.1741 0.58447 40.2381 0.30847C34.5234 0.0431369 28.0381 -0.134207 22.4474 0.131127C19.4501 0.27246 14.7061 0.243116 10.7047 1.02045C8.69274 1.41112 3.3434 2.5298 2.6994 3.86713C2.22874 4.8458 2.73008 11.0671 3.41008 12.4071C4.02875 13.6231 5.33542 13.4098 6.07942 14.3631C6.86342 21.2485 1.7354 23.6698 0.564735 28.9511C-0.000598335 31.4991 0.134067 34.8378 0.030067 37.8471C-0.077933 40.9938 0.134079 44.1978 0.208745 47.2765C0.512745 59.9538 0.0874121 71.8685 0.742079 84.6365" fill="#422123"/>
<path fill-rule="evenodd" clip-rule="evenodd" d="M50.9128 4.04448C50.2021 5.10581 48.8621 5.19646 47.3541 5.28979C42.9368 5.56579 35.3248 6.5245 28.8514 6.53517C20.6981 6.55117 12.1528 6.68578 5.90076 4.57912C18.4448 1.26178 37.5874 1.77381 50.9128 4.04448" fill="#FBBF2A"/>
<path fill-rule="evenodd" clip-rule="evenodd" d="M52.8687 9.73781C51.31 10.3138 49.7634 10.9018 47.71 10.9832C47.6167 9.77115 47.2487 8.83381 47.1767 7.60314C49.0154 7.30714 50.938 7.0965 52.3354 6.35783C53.1207 6.8765 52.4367 8.86581 52.8687 9.73781" fill="#FBBF2A"/>
<path fill-rule="evenodd" clip-rule="evenodd" d="M5.0127 6.89121C5.84203 6.77254 6.15536 7.1712 6.79136 7.2472C6.61669 9.3192 7.23268 10.6005 7.50202 12.2285C6.86602 12.2125 6.47402 11.9512 5.90068 11.8725C5.59535 10.2219 5.2687 8.59121 5.0127 6.89121" fill="white"/>
<path fill-rule="evenodd" clip-rule="evenodd" d="M8.03674 7.60319C8.60874 7.68185 9.00074 7.94318 9.63674 7.95918C9.51941 9.85518 10.0727 11.0818 10.1714 12.7618C9.61008 12.8498 9.54342 12.4419 8.92608 12.5845C8.51008 11.0432 8.15141 9.44452 8.03674 7.60319Z" fill="white"/>
<path fill-rule="evenodd" clip-rule="evenodd" d="M45.93 11.3391C45.2767 11.4565 44.734 11.6845 43.974 11.6951C44.0394 10.4645 43.878 8.64046 43.974 7.95913C46.49 6.99379 45.4834 9.80714 45.93 11.3391Z" fill="white"/>
<path fill-rule="evenodd" clip-rule="evenodd" d="M43.0834 8.13645C42.7914 9.20712 42.9394 10.7191 42.9061 12.0511C42.0567 11.9125 41.7621 12.3284 40.9487 12.2284C40.9487 10.9231 40.9487 9.61913 40.9487 8.31513C41.7901 8.38446 42.4341 8.25779 43.0834 8.13645Z" fill="white"/>
<path fill-rule="evenodd" clip-rule="evenodd" d="M10.5275 8.31513C11.3395 8.21513 11.6355 8.62977 12.4848 8.49244C12.5995 10.0378 12.8248 11.4738 12.8395 13.1178C12.2741 12.9725 11.5301 13.0044 11.0608 12.7618C10.9835 11.1791 10.4541 10.0485 10.5275 8.31513" fill="white"/>
<path fill-rule="evenodd" clip-rule="evenodd" d="M39.3487 8.49248C39.2687 9.93648 39.4247 11.1445 39.5261 12.4072C39.1074 12.4632 38.8581 12.6872 38.2807 12.5845C38.6514 11.2352 37.3541 8.21782 39.3487 8.49248Z" fill="white"/>
<path fill-rule="evenodd" clip-rule="evenodd" d="M13.73 8.66985C14.4873 8.68318 14.974 8.96719 15.8646 8.84853C16.326 10.1059 16.1487 12.0032 16.5767 13.2965C15.8047 13.2965 15.034 13.2965 14.2633 13.2965C13.8273 12.0125 13.966 10.1525 13.73 8.66985" fill="#FBBF2A"/>
<path fill-rule="evenodd" clip-rule="evenodd" d="M36.3234 8.66984C36.486 9.58584 36.1834 11.4658 36.146 12.7618C33.0234 13.1978 29.39 13.1232 25.8274 13.1179C25.9487 11.5725 25.6527 10.4458 25.65 9.02716C29.2314 8.93116 32.8687 8.8925 36.3234 8.66984" fill="#FBBF2A"/>
<path fill-rule="evenodd" clip-rule="evenodd" d="M17.4661 9.02717C18.8914 8.96451 19.8781 9.34185 21.3808 9.20452C21.3434 10.6632 21.3768 12.0538 21.5568 13.2965C20.2528 13.2965 18.9488 13.2965 17.6434 13.2965C17.5674 11.8898 17.3728 10.6005 17.4661 9.02717Z" fill="#FBBF2A"/>
<path fill-rule="evenodd" clip-rule="evenodd" d="M24.0487 9.02717C24.3061 10.3098 24.3527 11.8058 24.4034 13.2965C23.7514 13.2965 23.0994 13.2965 22.4474 13.2965C22.4474 11.9312 22.4474 10.5685 22.4474 9.20452C23.0954 9.25918 23.6047 9.17517 24.0487 9.02717Z" fill="white"/>
<path fill-rule="evenodd" clip-rule="evenodd" d="M48.066 14.3631C37.7407 18.0218 19.7433 17.6058 7.68066 15.7871C7.68066 15.3125 7.68066 14.8378 7.68066 14.3631C19.51 16.6365 36.4913 17.3525 48.066 14.3631Z" fill="white"/>
<path fill-rule="evenodd" clip-rule="evenodd" d="M49.666 15.7871C49.8447 15.7871 50.022 15.7871 50.2007 15.7871C50.3593 17.5391 47.4153 17.5231 46.1087 17.7431C37.71 19.1605 27.4327 19.5791 18.1767 18.8111C14.442 18.5018 10.606 18.7885 7.68066 17.3871C10.23 17.0125 12.9233 17.6871 15.686 17.9218C24.226 18.6458 33.09 18.0125 41.3047 17.0311C44.2567 16.6791 47.1727 16.7765 49.666 15.7871" fill="white"/>
<path fill-rule="evenodd" clip-rule="evenodd" d="M4.65668 28.9512C6.67268 27.8259 7.56202 25.5712 7.85802 22.7245C6.01535 24.0245 5.27401 26.4272 4.65668 28.9512ZM44.1513 22.7245C45.5287 22.9498 47.3113 22.1085 48.066 21.1232C46.938 20.4778 44.006 20.9312 44.1513 22.7245ZM50.5553 18.8112C51.5127 20.2099 52.0647 22.0952 52.8687 23.7925C53.6713 25.4858 54.33 27.1738 55.3593 28.5965C47.9567 32.8485 35.0073 33.1045 23.1593 32.3312C15.7447 31.8498 8.48334 31.4725 2.69934 30.0192C3.89401 26.1739 6.27267 23.5125 7.14734 19.3445C19.4047 22.4979 38.786 21.9152 50.5553 18.8112" fill="white"/>
<path fill-rule="evenodd" clip-rule="evenodd" d="M7.14741 94.4217C10.6647 96.0057 15.2714 97.4431 20.4901 96.7337C18.9128 95.4804 16.3421 95.5031 14.0847 95.1337C11.6047 94.7271 9.01675 94.0991 6.96875 93.7097C6.95542 94.0191 7.00874 94.263 7.14741 94.4217V94.4217ZM24.5821 37.491C18.2154 38.051 14.4341 40.4844 10.8834 43.7177C9.77941 44.7231 7.71542 46.6524 7.50208 48.1657C7.38742 48.9764 7.68208 50.1804 7.68074 51.0124C7.66074 61.7697 6.75941 74.9644 8.21408 86.7724C19.6034 92.2364 40.9407 91.1977 53.0474 87.1271C53.3927 73.4377 52.0327 59.9151 51.2674 46.7431C44.6047 41.3204 36.8087 36.415 24.5821 37.491V37.491ZM56.6047 31.7977C57.9901 41.9551 57.4101 54.9884 57.8501 66.8457C58.2034 76.3737 58.5008 85.7817 57.4941 94.5991C57.0368 95.3737 56.0141 95.9124 55.1821 96.3791C51.5221 98.4337 45.9168 98.2404 39.7048 98.5137C27.0674 99.0684 11.2941 98.3884 3.94476 93.887C1.99009 74.6364 3.06742 52.8977 2.34342 32.1537C2.32742 31.9017 2.31409 31.6497 2.52209 31.6204C11.3248 35.5217 25.9421 34.9724 38.4581 34.4671C45.3608 34.1884 51.7901 33.9937 56.6047 31.7977" fill="white"/>
<path fill-rule="evenodd" clip-rule="evenodd" d="M26.8941 85.5271C26.9461 84.2884 26.1487 83.9004 25.1154 83.7471C24.0007 84.7764 25.5994 86.3737 26.8941 85.5271ZM48.5994 84.8151C49.0247 84.9218 49.4101 85.0711 50.0221 84.9924C50.2607 84.4537 50.6567 83.9671 50.3781 83.3911C49.4434 82.8791 48.4127 83.6311 48.5994 84.8151V84.8151ZM40.2381 76.2751C40.6567 76.2791 40.7621 75.9684 41.3047 76.0977C41.6954 75.4204 41.9127 74.5697 41.8394 73.4284C40.3847 73.4564 40.7367 75.2911 40.2381 76.2751ZM19.9554 74.1404C20.5727 73.3937 20.6527 72.1084 21.2021 71.2937C19.7941 69.9524 18.4087 73.5404 19.9554 74.1404ZM27.6061 65.9564C27.4061 65.0884 26.2007 65.2271 25.1154 65.2444C23.8674 66.3458 24.0927 69.4124 24.9381 70.7604C20.6194 69.6977 20.0461 75.5817 23.8701 75.5631C23.0887 76.6964 21.4327 77.6551 21.9127 79.2991C22.4607 81.1751 25.6914 80.2271 26.5394 79.6551C25.0007 85.2044 30.8581 85.1031 30.8087 80.9004C31.5607 84.5537 36.6874 82.7431 35.0781 78.7657C38.1981 80.0311 39.7687 75.9431 37.3914 74.6737C38.1821 74.3964 38.8234 73.9711 39.3487 73.4284C40.186 70.2417 36.6807 70.7724 34.9007 70.7604C35.6274 69.5097 35.5714 67.0511 34.9007 65.7778C33.514 64.5458 31.9314 66.4124 31.5207 66.6671C31.5114 65.4911 30.9647 64.8524 30.4527 64.1778C28.6661 63.9338 28.2754 65.0844 27.6061 65.9564V65.9564ZM40.0594 63.2871C41.5927 63.6311 42.37 62.2817 43.0834 62.3977C42.7687 64.7511 42.8061 67.4591 40.7714 68.0911C39.6767 67.8804 40.0181 66.2351 39.7047 65.2444C37.6754 65.1591 37.9514 67.2524 38.2807 68.0911C38.6927 69.1431 40.6407 70.0404 41.6607 69.8711C44.1994 69.4457 44.8767 64.8271 44.8634 61.3311C44.8554 59.2031 45.134 56.6284 44.1514 55.6377C43.07 57.6991 43.2954 61.0671 40.9487 61.8644C39.494 60.7711 41.3994 56.3137 39.7047 55.4604C38.4594 57.2671 38.4314 61.9457 40.0594 63.2871V63.2871ZM22.4474 63.4657C25.114 63.0164 24.8727 54.0217 21.0234 55.6377C18.6007 56.6551 19.4407 63.9724 22.4474 63.4657ZM26.7167 61.8644C27.9207 60.2977 25.5607 56.2271 28.4954 56.3498C29.2527 58.3271 28.1194 62.1497 30.4527 62.2204C31.2834 62.2457 32.3074 61.5484 32.2314 60.0858C31.246 59.8711 31.1981 60.5938 30.4527 60.6191C30.1047 58.7138 30.3914 56.1737 29.3847 54.9257C28.218 54.1951 26.8767 55.4004 26.5394 55.4604C26.5741 54.9497 26.5607 54.4884 26.0047 54.5711C25.4781 56.4991 25.1927 60.8457 26.7167 61.8644ZM32.9434 57.4178C32.8967 57.6671 32.5527 57.6204 32.4101 57.7724C33.3501 59.2057 33.35 61.5764 34.9007 62.3977C36.826 62.7204 38.3301 61.8791 37.7461 60.2631C37.2634 59.7377 36.3194 60.4791 35.9674 60.0858C35.466 59.6391 35.1021 59.0537 35.0781 58.1284C36.4061 57.5724 37.662 56.1498 37.0354 54.2151C34.866 52.6311 32.4674 54.6604 32.9434 57.4178ZM16.5767 57.5951C15.7461 57.5431 15.0527 58.5537 14.6194 58.3057C14.1834 56.1337 14.6941 53.0124 13.3741 51.7231C12.4927 53.9591 13.1767 58.5817 13.3741 61.3311C13.5554 63.8697 13.2154 67.0751 14.7967 68.0911C15.5567 66.1911 14.79 62.9324 14.7967 60.6191C15.2954 59.9911 15.8807 59.4497 16.7541 59.1964C16.6901 61.3951 17.1634 63.0551 18.1767 64.1778C18.8594 59.7711 18.1834 53.9311 17.1087 50.1231C15.0967 51.2844 16.9074 55.2644 16.5767 57.5951V57.5951ZM49.8447 48.6991C49.6607 61.6937 50.5047 73.6577 51.4461 85.5271C39.4514 88.5191 22.0047 89.7151 9.63672 85.7044C9.98472 75.9284 10.1607 65.1071 9.99406 54.2151C9.97139 52.7644 9.57671 51.0338 9.81538 49.9444C10.054 48.8578 12.23 47.1004 13.5514 46.0311C16.5874 43.5751 21.662 39.7964 26.7167 39.6257C36.73 39.2884 44.5967 44.0911 49.8447 48.6991" fill="#F79814"/>
<path fill-rule="evenodd" clip-rule="evenodd" d="M35.078 55.1045C35.3154 55.1045 35.5527 55.1045 35.79 55.1045C35.7007 55.7845 35.6287 56.4845 34.9007 56.5272C34.922 56.0152 34.8034 55.3632 35.078 55.1045" fill="white"/>
<path fill-rule="evenodd" clip-rule="evenodd" d="M21.7354 57.0605C22.9928 57.7418 22.6501 60.2965 22.2688 61.6859C21.0461 60.9779 20.9434 58.3218 21.7354 57.0605Z" fill="white"/>
<path fill-rule="evenodd" clip-rule="evenodd" d="M29.7407 71.2938C28.8034 70.2364 28.2247 66.4671 29.7407 65.6004C30.7714 66.5738 30.3394 70.2218 29.7407 71.2938Z" fill="white"/>
<path fill-rule="evenodd" clip-rule="evenodd" d="M26.0048 66.4897C27.5488 67.3764 27.5648 69.7924 27.9621 71.8271C26.4541 71.0764 25.1848 68.4084 26.0048 66.4897Z" fill="white"/>
<path fill-rule="evenodd" clip-rule="evenodd" d="M34.0101 66.6672C34.4021 69.1805 33.6021 71.7578 31.3421 72.1832C30.9381 70.4418 31.9141 67.0872 34.0101 66.6672Z" fill="white"/>
<path fill-rule="evenodd" clip-rule="evenodd" d="M38.2807 72.3604C37.5514 74.0924 34.3181 74.1711 32.0541 73.7845C33.6127 72.9218 36.2141 71.0311 38.2807 72.3604Z" fill="white"/>
<path fill-rule="evenodd" clip-rule="evenodd" d="M26.7167 73.6058C26.0487 74.3485 23.7794 73.7298 22.9807 73.4285C23.6047 72.1165 25.8594 73.0578 26.7167 73.6058Z" fill="white"/>
<path fill-rule="evenodd" clip-rule="evenodd" d="M29.5634 72.8952C29.9994 73.3538 29.7981 74.1658 29.5634 74.8525C28.7261 75.0365 28.6688 74.4418 28.3181 74.1405C28.4874 73.4792 28.7314 72.8938 29.5634 72.8952" fill="white"/>
<path fill-rule="evenodd" clip-rule="evenodd" d="M27.6061 75.9191C26.9314 77.6151 25.686 78.7431 23.5154 78.9431C23.466 77.3964 25.9301 75.1671 27.6061 75.9191Z" fill="white"/>
<path fill-rule="evenodd" clip-rule="evenodd" d="M30.9874 75.7418C32.3781 76.9418 34.7647 79.4485 33.2994 81.7898C31.4661 81.7271 30.2274 77.8178 30.9874 75.7418Z" fill="white"/>
<path fill-rule="evenodd" clip-rule="evenodd" d="M33.2993 75.9192C34.466 75.5858 36.882 75.5365 37.3913 76.4525C37.0393 79.0432 33.7873 76.9618 33.2993 75.9192Z" fill="white"/>
<path fill-rule="evenodd" clip-rule="evenodd" d="M28.8514 77.5205C29.0968 79.5778 29.5381 81.4485 28.4954 82.8578C26.9541 81.9178 28.1528 78.4925 28.8514 77.5205Z" fill="white"/>
<path fill-rule="evenodd" clip-rule="evenodd" d="M55.7154 98.3351C56.0847 98.1365 56.0927 98.1431 55.894 98.5138C49.77 101.952 39.5247 102.15 29.5633 102.427C20.4273 102.682 8.0847 103.89 5.0127 97.0898C10.2354 99.9258 19.634 100.648 29.2074 100.648C38.542 100.648 48.5967 101.307 54.826 98.6911C55.1674 98.5485 55.366 98.5791 55.7154 98.3351Z" fill="white"/>
</svg>
