<svg width="106" height="121" viewBox="0 0 106 121" fill="none" xmlns="http://www.w3.org/2000/svg">
<path fill-rule="evenodd" clip-rule="evenodd" d="M3.21222 38.6939C3.74462 41.8459 5.74715 44.4152 6.23675 47.7672C6.87995 52.1765 6.41382 58.5338 6.41382 63.4232C6.41542 75.0645 7.25862 86.8192 7.48155 98.1152C7.51382 99.7779 7.25502 102.07 7.48155 102.563C7.96222 103.605 11.6638 104.447 13.1742 105.054C25.2264 109.891 36.6977 114.177 49.1127 118.397C51.2107 119.11 53.8227 120.265 55.6951 120.175C57.7175 120.079 60.2446 118.422 62.2774 117.33C64.3914 116.194 66.9217 115.37 68.8607 114.482C79.8321 109.457 90.1263 104.095 99.6378 98.1152C101.608 96.8765 103.896 96.2245 105.509 94.5565C103.771 81.3805 102.903 63.4539 101.773 48.8352C101.597 46.5619 100.961 43.8592 101.239 42.0739C101.643 39.4819 104.836 36.2152 105.153 33.7125C101.499 28.0552 96.8217 23.1819 91.6326 18.4125C87.9206 15.0019 84.7654 11.1605 81.1351 7.38187C80.0518 6.25521 77.8373 4.71787 77.5779 3.64587C77.2837 2.42987 78.0337 1.65519 77.5779 0.799191C77.0206 -0.244809 75.6602 0.00184758 74.9086 0.0885142C67.5899 0.932514 60.4643 2.56454 53.0258 3.64587C45.7263 4.70854 38.3722 5.77119 31.3217 7.56052C30.7794 8.44185 30.669 9.7552 30.4321 10.9405C22.2133 18.0272 12.0649 26.0685 3.39035 33.5352C2.31129 34.4632 -0.178861 36.1672 0.0101925 37.2712C0.214366 38.4645 1.94609 38.3352 3.21222 38.6939" fill="#422123"/>
<path fill-rule="evenodd" clip-rule="evenodd" d="M75.0873 1.8672C76.1909 2.05654 74.4018 2.96586 75.0873 3.28986C61.5613 5.83653 47.3373 7.6832 35.4138 11.8299C35.5258 10.6085 35.2446 8.97121 35.4138 8.27254C49.1717 6.67121 61.5545 3.6952 75.0873 1.8672" fill="#75353B"/>
<path fill-rule="evenodd" clip-rule="evenodd" d="M62.6326 47.0552C63.432 47.2685 64.9799 46.8312 64.946 45.6325C63.7487 45.6792 62.5622 45.7392 62.6326 47.0552ZM102.307 33.0005C88.8121 39.2552 74.5716 44.7619 60.3216 50.2592C52.8966 37.2232 43.519 25.1925 35.5908 13.2539C41.6899 11.3992 48.346 10.1632 54.9831 8.80586C61.8763 7.39653 68.7617 6.71386 75.4424 5.60319C77.4241 5.27386 78.0664 7.16053 79.5346 8.80586C86.7976 16.9445 95.6976 24.9712 102.307 33.0005" fill="#75353B"/>
<path fill-rule="evenodd" clip-rule="evenodd" d="M27.9409 37.6272C25.9748 36.0939 24.8789 33.6926 24.0275 31.0432C22.7639 33.7766 24.8712 38.1019 27.9409 37.6272ZM31.3217 28.5539C26.2827 25.0512 23.4165 35.3752 29.3644 36.0259C30.1743 36.1139 30.6248 36.0085 31.4998 35.6699C32.8862 33.7152 33.2775 29.9126 31.3217 28.5539ZM33.9904 35.1352C35.7185 33.6032 35.2733 28.5565 33.2785 27.6645C33.793 29.9005 34.2196 32.6899 33.9904 35.1352ZM56.4061 51.3259C55.0259 53.8592 53.7977 56.5459 52.6707 59.3312C37.9071 55.8285 22.6483 52.8232 8.19412 49.0126C7.98679 47.0792 7.60239 45.5312 7.12639 43.6752C6.79145 42.3699 5.48519 39.9179 5.70292 38.6939C5.91025 37.5285 10.9764 34.0539 12.1067 33.1792C19.0087 27.8419 26.0665 22.7685 32.2108 16.9885C32.3618 16.9565 32.3789 17.0592 32.3894 17.1672C36.5206 22.8912 40.0701 28.8965 44.13 34.6019C48.1379 40.2325 52.7619 45.4205 56.4061 51.3259" fill="#FBBF2A"/>
<path fill-rule="evenodd" clip-rule="evenodd" d="M29.8982 29.0872C29.1612 30.1285 28.8419 31.5898 28.8304 33.3565C28.2403 33.2938 28.0596 32.8245 27.7627 32.4672C28.1159 30.9805 27.92 28.9472 29.8982 29.0872" fill="white"/>
<path fill-rule="evenodd" clip-rule="evenodd" d="M101.595 36.2032C101.928 37.4432 99.5285 38.9858 98.9253 40.4738C84.2794 46.8178 69.34 52.8725 54.9832 59.5085C55.7342 56.9992 57.3764 55.3792 58.1846 52.9258C60.3774 53.8512 61.4176 52.2258 62.8113 51.5032C65.6518 50.0312 69.1638 49.1178 72.4176 47.7672C75.5633 46.4632 78.866 45.3645 82.0242 44.0312C85.1857 42.6978 88.1889 41.1032 91.4545 40.1179C94.9685 39.0565 98.7196 37.7605 101.595 36.2032" fill="#FBBF2A"/>
<path fill-rule="evenodd" clip-rule="evenodd" d="M57.1179 63.4232C58.0597 63.5938 58.3253 63.0885 58.5414 62.5338C58.1909 61.2098 56.2247 62.1125 57.1179 63.4232ZM99.8165 44.9205C85.1403 52.0685 70.0789 58.8312 55.517 66.0925C55.1977 64.7512 55.3503 62.9378 55.1613 61.4658C69.4955 54.5712 85.0346 48.8792 99.6378 42.2525C100.049 42.7899 99.7003 44.0872 99.8165 44.9205" fill="white"/>
<path fill-rule="evenodd" clip-rule="evenodd" d="M57.4736 70.5392C57.7184 70.5325 57.8643 70.6232 58.0075 70.7179C58.5466 70.4459 58.958 69.8499 58.5414 69.1165C57.3503 68.7099 56.9788 69.8232 57.4736 70.5392ZM97.3252 52.3938C97.7976 52.3912 98.3408 52.4605 98.57 52.2152C98.6107 52.0765 98.5752 51.8645 98.7487 51.8592C98.8096 49.9578 95.8096 51.0085 97.3252 52.3938ZM100.172 54.7059C85.8851 61.5312 70.6856 67.4432 55.6951 73.5645C55.3356 71.9045 55.557 68.7232 55.517 67.3379C69.9711 60.1459 85.3227 53.8525 99.4607 46.3432C100.173 48.6552 99.8982 51.9552 100.172 54.7059" fill="#FBBF2A"/>
<path fill-rule="evenodd" clip-rule="evenodd" d="M8.01538 50.0805C22.4555 54.2019 38.0727 57.1472 52.8487 60.9325C52.8487 62.5925 52.8487 64.2539 52.8487 65.9139C38.893 62.0192 22.8132 60.2485 8.54925 56.6632C8.39658 54.4432 8.26898 52.1992 8.01538 50.0805" fill="white"/>
<path fill-rule="evenodd" clip-rule="evenodd" d="M98.0378 62.5338C98.7012 62.5498 98.544 62.7325 99.1039 62.5338C99.3503 62.3045 99.2794 61.7605 99.2826 61.2885C98.5039 60.4445 97.3695 61.4592 98.0378 62.5338ZM100.172 56.6632C100.781 58.7818 100.703 61.5872 101.061 63.9565C92.3826 67.8258 83.544 71.1819 74.5528 74.8099C68.708 77.1672 62.7279 80.1192 56.0508 82.1032C55.8408 79.7618 55.7446 77.3099 55.517 74.9872C70.6846 69.1619 85.7351 63.2192 100.172 56.6632" fill="white"/>
<path fill-rule="evenodd" clip-rule="evenodd" d="M48.4009 76.2325C48.0441 80.4952 52.7343 75.3672 48.4009 76.2325V76.2325ZM49.6456 70.8952C50.3712 70.7899 50.7863 70.3752 50.8915 69.6499C50.13 67.7179 47.7133 70.1339 49.6456 70.8952ZM8.54932 57.9085C23.1733 61.1352 38.7004 63.4579 52.8488 67.1592C52.8488 69.2939 52.8488 71.4285 52.8488 73.5645C43.2352 71.2579 33.9529 68.6192 24.0275 66.6259C25.5155 68.4859 28.3461 68.7072 30.6108 69.2939C37.8608 71.1739 45.5805 73.0845 52.8488 74.8099C53.116 76.7952 53.0087 79.1552 53.0259 81.3925C38.6873 77.1085 23.9567 73.2205 9.08318 69.4725C9.16385 67.6125 9.00665 65.9912 8.90505 64.3125C11.34 65.0712 14.4936 65.6885 17.09 65.7365C14.8176 64.2712 11.3368 64.0152 8.90505 62.7112C8.54145 61.3565 8.89825 59.2779 8.54932 57.9085" fill="#FBBF2A"/>
<path fill-rule="evenodd" clip-rule="evenodd" d="M58.3628 88.1525C58.6603 88.1525 58.9567 88.1525 59.2524 88.1525C59.3289 87.8139 59.6363 87.7045 59.6092 87.2632C59.1551 85.7712 57.2289 87.1059 58.3628 88.1525V88.1525ZM98.5701 71.2512C98.7499 71.6645 99.1837 71.8245 99.8165 71.7845C99.8176 71.4312 100.302 71.5592 100.172 71.0725C100.249 70.0432 98.3524 70.1739 98.5701 71.2512ZM101.061 65.7365C101.455 67.9525 101.429 70.5872 101.417 73.2085C87.0509 80.4872 71.7827 86.8632 56.2289 92.9552C55.8185 90.2232 56.1655 86.7325 56.0509 83.7045C71.3165 77.9779 85.7603 71.4272 101.061 65.7365Z" fill="#FBBF2A"/>
<path fill-rule="evenodd" clip-rule="evenodd" d="M53.2045 83.1712C53.2045 86.1365 53.2045 89.1005 53.2045 92.0659C38.3018 87.7552 24.1675 82.6752 9.43886 78.1898C9.12886 75.8898 9.32526 73.0845 9.08313 70.7179C24.4851 74.1739 38.4233 79.0939 53.2045 83.1712Z" fill="white"/>
<path fill-rule="evenodd" clip-rule="evenodd" d="M58.0075 97.4032C58.7487 97.8752 59.8591 97.4232 59.6091 96.3365C58.9831 95.5845 57.7211 96.1818 58.0075 97.4032V97.4032ZM99.2826 78.5445C100.005 78.9258 100.655 78.4538 100.527 77.4778C99.8679 76.5898 98.5831 77.5525 99.2826 78.5445ZM101.773 79.6125C86.7722 86.9098 70.9305 93.3658 56.0509 100.785C55.9122 98.3325 56.2993 96.4058 56.2289 94.0232C72.2419 88.5685 86.9461 81.8072 101.416 74.8098C101.752 76.1925 101.794 77.8712 101.773 79.6125Z" fill="#FBBF2A"/>
<path fill-rule="evenodd" clip-rule="evenodd" d="M49.6455 103.453C50.2236 103.555 50.4736 103.331 50.8914 103.274C51.3998 101.145 48.0899 102.178 49.6455 103.453ZM9.43884 79.6125C24.6586 83.7859 38.3711 89.4645 53.3826 93.8445C53.2471 95.9965 53.6055 97.6552 53.5596 99.7165C47.0727 97.5459 40.9284 95.0312 33.8122 93.4898C34.6976 94.9378 36.7003 95.4059 38.2602 95.9805C43.0388 97.7392 48.5908 99.3498 53.5596 101.139C53.3826 102.291 53.2107 104.114 53.5596 105.231C39.117 100.223 24.1846 95.7032 9.97271 90.4645C10.0935 88.7418 9.80178 87.4338 9.79551 85.8405C15.2575 87.4352 20.0222 90.6739 26.3399 90.8205C21.1378 88.4325 15.3399 86.6405 9.79551 84.5938C9.60031 83.0098 9.59351 81.2365 9.43884 79.6125" fill="white"/>
<path fill-rule="evenodd" clip-rule="evenodd" d="M101.95 84.5939C87.3539 92.2352 71.696 98.8179 56.5842 105.943C56.458 104.527 56.156 103.287 56.2288 101.674C71.6508 95.2725 86.807 88.6045 101.773 81.7485C102.184 82.3445 101.836 83.7019 101.95 84.5939" fill="#FBBF2A"/>
<path fill-rule="evenodd" clip-rule="evenodd" d="M58.1846 109.323C58.6717 109.453 58.5441 108.97 58.8966 108.967C59.131 106.443 56.1013 108.725 58.1846 109.323ZM57.118 111.814C57.1676 110.045 56.7394 108.754 56.7618 107.01C71.9253 100.29 86.9764 93.4592 101.95 86.5512C103.283 89.7219 99.3566 90.8872 96.9696 92.0659C83.9936 98.4739 70.2654 106.319 57.118 111.814" fill="white"/>
<path fill-rule="evenodd" clip-rule="evenodd" d="M101.95 91.3552C102.732 91.5819 102.106 93.2165 102.307 94.0232C98.04 96.1205 93.9034 98.6352 89.6753 100.962C79.4337 106.597 67.781 110.577 57.8305 116.795C57.368 115.774 57.517 114.145 57.2966 112.882C72.9696 106.495 86.8504 98.3139 101.95 91.3552" fill="white"/>
<path fill-rule="evenodd" clip-rule="evenodd" d="M10.1509 91.7098C24.0294 97.4018 39.4633 101.537 53.5597 107.01C53.4373 108.734 53.8608 109.913 53.7384 111.637C39.2196 106.643 24.767 101.587 10.328 96.5138C10.3878 94.7952 10.0128 93.5085 10.1509 91.7098" fill="white"/>
<path fill-rule="evenodd" clip-rule="evenodd" d="M10.328 97.5819C24.2733 103.325 39.5753 107.711 53.9155 113.059C54.0843 114.283 54.5076 116.106 54.0936 117.33C53.2081 117.578 52.3712 116.879 51.6024 116.618C48.8775 115.69 46.0753 114.818 43.2404 113.771C32.5936 109.839 21.2316 105.753 10.5067 101.674C10.6289 100.127 10.3321 99.0019 10.328 97.5819" fill="white"/>
<path fill-rule="evenodd" clip-rule="evenodd" d="M33.1003 14.1432C31.3774 14.3098 30.0736 15.6978 28.8304 16.6338C21.4424 22.1952 14.7299 28.7912 6.94923 34.2458C5.74457 35.0898 4.6003 36.7698 2.85657 36.3818C10.0336 30.7232 17.596 24.4418 25.0951 18.2338C26.0736 17.4245 27.2403 16.1512 28.6534 15.0325C29.9711 13.9872 31.8184 13.0885 32.2107 12.0085C32.6012 10.9325 31.7784 9.18183 33.1003 8.80583C33.8842 9.7525 33.2122 11.6005 33.6351 12.8978C34.5804 15.8018 37.1675 18.8792 38.9711 21.7925C44.2966 30.3951 50.617 39.2485 56.2288 47.0551C50.0346 41.6845 44.9408 31.5645 39.505 23.9272C37.1342 20.5965 34.708 17.9698 33.1003 14.1432" fill="white"/>
</svg>
