<svg width="124" height="99" viewBox="0 0 124 99" fill="none" xmlns="http://www.w3.org/2000/svg">
<path fill-rule="evenodd" clip-rule="evenodd" d="M83.6722 11.3265C83.6002 8.01985 83.4576 4.78383 82.6243 2.23983C81.7456 2.01183 81.1123 0.689178 79.8283 0.317178C77.4283 -0.378822 73.7629 0.282512 70.0429 0.317178C61.5242 0.394512 55.9642 0.290527 47.6749 0.666527C44.5136 0.810527 38.5096 0.594501 37.0163 2.23983C35.4216 3.99317 36.4069 8.30653 35.7923 10.8025C24.0083 10.7332 11.2149 9.9012 0.316253 10.1039C0.756253 12.2812 -0.725073 16.0518 0.490927 17.6172C1.23759 18.5758 2.43892 18.0785 3.81225 18.6665C3.22425 33.7305 4.33357 48.5492 5.03491 63.4025C5.53624 74.0319 5.67225 84.5839 5.90825 95.2065C14.7149 96.7359 24.1776 96.8652 33.6949 97.1292C38.5669 97.2652 43.4842 96.7225 48.3722 96.9545C67.3482 97.8585 87.1162 98.9719 105.167 98.1785C109.906 97.9692 114.792 98.9585 119.323 97.6532C119.438 72.3385 120.102 46.7759 120.196 20.9385C121.379 20.4905 122.398 19.8759 123.168 19.0159C123.096 16.6985 123.251 14.1532 122.643 12.3759C110.002 11.6772 97.1762 11.1625 83.6722 11.3265" fill="#422123"/>
<path fill-rule="evenodd" clip-rule="evenodd" d="M81.4016 4.16254C81.0149 6.22254 81.3269 8.9812 81.2269 11.3265C80.4696 11.3265 79.7109 11.3265 78.9549 11.3265C79.0909 8.75321 78.4949 6.52653 79.3029 4.6852C78.2242 3.51186 76.3669 3.98653 74.9362 3.98653C63.4922 3.98653 50.6509 4.1892 40.8589 6.08386C40.8589 7.10253 41.1429 9.27321 41.2069 10.8025C40.1923 10.7119 38.7976 10.9985 38.0642 10.6279C38.3656 8.02121 37.3589 5.16389 38.2389 3.11322C47.5976 2.74389 56.9816 2.23985 67.7709 2.23985C73.3176 2.23852 78.9962 1.64654 81.4016 4.16254" fill="#75353B"/>
<path fill-rule="evenodd" clip-rule="evenodd" d="M75.9829 6.4332C75.7976 7.93854 75.7176 9.66786 75.9829 11.1519C65.5762 10.8399 54.5322 11.1692 44.1802 10.8025C44.1576 9.60121 44.1003 8.43455 43.8296 7.48122C54.2336 6.68922 65.0042 6.18254 75.9829 6.4332Z" fill="white"/>
<path fill-rule="evenodd" clip-rule="evenodd" d="M3.11364 12.3759C18.9096 13.5919 34.8897 13.3119 50.995 13.2479C56.4497 13.2279 61.9136 13.7732 67.4216 13.7732C83.779 13.7732 100.675 13.6999 117.402 14.2972C99.3657 15.9519 79.5816 15.1719 59.7336 15.1719C50.351 15.1719 40.9603 14.2972 31.0736 14.2972C23.1043 14.2972 13.9136 14.2972 5.9083 13.7732C4.2603 13.6652 3.03763 14.1639 2.93763 12.8999C2.92163 12.6519 2.90964 12.4052 3.11364 12.3759Z" fill="#75353B"/>
<path fill-rule="evenodd" clip-rule="evenodd" d="M3.11361 14.2972C12.4203 15.2585 22.0843 15.1719 31.7709 15.1719C41.4203 15.1719 51.0829 15.8706 60.7816 15.8706C80.3003 15.8706 100.118 16.2839 119.498 16.5692C119.391 17.6919 117.679 17.4119 117.051 17.4426C108.428 17.8572 99.0869 17.6452 90.8376 17.6172C76.9909 17.5732 61.7923 17.2586 46.6256 16.5692C33.5909 15.9772 19.2443 16.6212 5.03493 15.8706C3.29359 15.7786 2.6616 16.2345 2.9376 14.8212C2.9216 14.5732 2.90961 14.3265 3.11361 14.2972Z" fill="#75353B"/>
<path fill-rule="evenodd" clip-rule="evenodd" d="M6.25757 18.6666C6.3749 18.6666 6.49089 18.6666 6.60822 18.6666C8.13222 19.0039 8.09222 20.9092 9.40555 21.4626C8.36822 22.5826 8.01355 24.3812 6.60822 25.1319C5.80289 23.6652 6.4829 20.7119 6.25757 18.6666Z" fill="white"/>
<path fill-rule="evenodd" clip-rule="evenodd" d="M9.05359 19.016C11.3723 18.504 14.1082 19.088 16.5696 19.016C16.3229 19.8186 15.7576 20.3013 15.3456 20.9386C13.8429 20.4493 12.1536 21.0679 10.6283 21.1133C10.2923 20.2253 9.77359 19.52 9.05359 19.016Z" fill="white"/>
<path fill-rule="evenodd" clip-rule="evenodd" d="M19.1896 19.0159C19.5603 19.5746 18.4589 20.7092 18.4909 21.9852C18.5229 23.2572 19.1002 24.3479 20.0642 24.7826C20.8536 24.0399 19.8123 22.7572 19.5389 21.9852C19.9509 20.9426 20.3803 19.9159 20.9376 19.0159C22.5709 19.3626 24.7976 19.1173 26.7043 19.1906C26.8909 20.1093 27.1003 21.0066 27.5776 21.6373C26.6283 23.1919 25.8083 24.8786 24.6069 26.1813C23.2416 25.6573 21.1589 25.8173 19.5389 26.0066C18.8283 24.5039 17.7429 23.3746 16.9176 21.9852C17.5536 20.8759 17.8416 19.4133 19.1896 19.0159Z" fill="white"/>
<path fill-rule="evenodd" clip-rule="evenodd" d="M28.9749 19.3652C30.7829 18.9586 33.3456 19.3052 35.4416 19.1906C35.1842 19.9226 34.6336 20.3639 34.5682 21.2866C32.9936 21.2866 31.4229 21.2866 29.8509 21.2866C29.5949 20.6092 29.3816 19.8919 28.9749 19.3652" fill="white"/>
<path fill-rule="evenodd" clip-rule="evenodd" d="M44.7029 19.1906C45.1923 20.5052 46.1549 21.3506 46.6256 22.6852C44.9749 23.5986 43.8869 25.0732 42.6069 26.3546C41.3923 25.9972 39.5549 26.2612 38.0642 26.1812C36.9229 25.2812 36.4936 23.6719 35.4416 22.6852C36.1603 21.4826 37.0003 20.3999 37.7136 19.1906C40.0443 19.1906 42.3736 19.1906 44.7029 19.1906Z" fill="white"/>
<path fill-rule="evenodd" clip-rule="evenodd" d="M46.4523 19.1905C48.5989 19.3732 50.9429 19.3586 53.0923 19.5399C52.7816 20.3946 52.1736 20.9506 51.8696 21.8119C50.8536 21.4279 49.1469 21.7359 47.8483 21.6372C47.4416 20.7625 46.7709 20.1519 46.4523 19.1905" fill="white"/>
<path fill-rule="evenodd" clip-rule="evenodd" d="M108.663 35.4425C108.663 35.6759 108.663 35.9079 108.663 36.1412C109.482 36.4865 110.266 36.8692 111.459 36.8399C111.335 35.6519 109.895 34.9492 108.663 35.4425V35.4425ZM101.847 26.1812C100.162 27.7452 101.91 30.9972 103.595 31.4225C103.848 29.5238 102.838 27.4145 101.847 26.1812ZM110.06 31.4225C112.372 31.5998 113.996 25.7119 111.807 24.0825C111.691 24.0825 111.575 24.0825 111.459 24.0825C111.138 26.5679 110.408 29.5465 110.06 31.4225V31.4225ZM54.8389 19.5399C75.7763 20.1345 96.8589 20.4612 117.75 19.8892C117.204 31.5785 117.27 43.7852 117.402 55.7145C117.083 56.0692 116.716 54.8905 116.002 54.6652C114.163 54.0839 110.832 55.2679 109.187 55.3639C108.412 54.0412 107.667 52.6905 106.914 51.3452C105.243 50.5945 102.838 50.5759 100.972 50.4705C99.0176 51.6599 97.9923 53.7799 96.7803 55.7145C95.1389 55.4932 93.7256 55.5692 92.0603 55.7145C90.7976 54.8812 90.5749 53.0065 89.4403 52.0425C90.3176 50.4159 92.7016 48.4385 92.5856 46.2772C92.4869 44.5012 90.7269 43.5238 89.6149 42.2585C90.4416 40.4825 92.6203 39.0052 92.5856 37.0145C92.5656 35.8465 91.1709 34.5998 90.4896 33.5198C89.7016 32.2772 89.3443 30.8212 88.2163 30.3745C86.2616 30.9932 84.4109 30.0825 82.9736 30.3745C80.2363 30.9305 79.6723 34.6319 78.4309 36.8399C79.6363 38.4879 80.215 40.7639 81.227 42.6065C80.555 43.9159 79.9936 45.3358 79.3029 46.6278C77.5829 46.6572 75.9136 46.6372 74.4109 46.4518C73.3603 45.0545 72.5509 43.4198 71.2669 42.2585C69.4883 42.2878 68.0749 41.9518 66.1976 42.0838C65.3669 40.2345 64.375 38.5465 63.227 37.0145C61.2003 35.8079 58.7603 37.2305 56.9363 36.6652C55.1163 36.1012 55.2976 33.3412 53.9643 32.1225C54.2683 30.4425 55.8469 29.3012 55.8883 27.5785C55.9363 25.5252 54.059 24.0652 53.0923 22.5119C53.575 21.4212 54.2096 20.4839 54.8389 19.5399Z" fill="#FBBF2A"/>
<path fill-rule="evenodd" clip-rule="evenodd" d="M11.8509 28.9773C12.4816 27.2706 10.9069 26.3306 10.8002 24.7826C10.6282 24.7826 10.4536 24.7826 10.2776 24.7826C9.80958 26.5346 10.5176 28.4599 11.8509 28.9773ZM15.3456 22.6852C16.1283 24.2906 17.1389 25.6679 17.9656 27.2292C16.9642 28.1479 16.3029 29.4106 15.5203 30.5493C14.3003 30.7279 12.9349 30.7599 11.5002 30.7239C10.6882 29.0906 9.56827 27.7639 8.5296 26.3546C9.0856 24.9892 9.57359 23.5533 10.4536 22.5119C12.3456 22.6306 13.8883 22.0732 15.3456 22.6852" fill="white"/>
<path fill-rule="evenodd" clip-rule="evenodd" d="M33.171 27.9279C34.219 27.8879 33.923 25.7092 33.695 24.9572C33.4696 24.9479 33.4523 24.7332 33.171 24.7826C32.7003 25.2812 32.159 27.5759 33.171 27.9279ZM34.219 22.6852C34.7656 24.1772 35.743 25.2359 36.491 26.5292C35.5603 28.1612 34.0016 29.1679 32.8203 30.5492C31.4203 30.4892 30.4523 30.8599 28.975 30.7239C27.803 29.9745 27.3096 28.5452 26.3536 27.5786C27.551 26.0946 28.5203 24.3865 29.5003 22.6852C31.2603 22.8172 32.683 22.2692 34.219 22.6852" fill="white"/>
<path fill-rule="evenodd" clip-rule="evenodd" d="M45.9269 29.5012C46.3882 28.8545 46.2696 27.6305 46.2762 26.5292C44.7336 26.3825 44.7229 29.2412 45.9269 29.5012ZM52.0429 23.9092C52.8029 25.1279 53.6562 26.2559 54.4882 27.4039C53.7762 28.8452 52.8682 30.0932 52.0429 31.4225C49.9176 31.2772 48.6016 31.9412 46.4522 31.7732C45.5296 30.3039 44.5922 28.8545 43.6549 27.4039C44.8269 25.8372 46.9789 24.3212 48.3722 23.5585C49.6202 23.6532 50.8522 23.7612 52.0429 23.9092" fill="#F79814"/>
<path fill-rule="evenodd" clip-rule="evenodd" d="M9.2283 31.4226C8.43763 32.7866 7.90961 34.4159 6.60828 35.2679C6.38561 32.6333 6.5603 29.6079 6.25763 27.0546C6.53363 27.0399 6.92563 27.1386 6.95763 26.88C7.9643 28.1426 8.3443 30.0359 9.2283 31.4226" fill="white"/>
<path fill-rule="evenodd" clip-rule="evenodd" d="M24.7829 27.5786C25.4896 28.9666 26.2536 30.3012 27.2283 31.4225C26.6309 32.7465 25.8856 33.9239 25.3056 35.2679C23.1322 35.4025 21.4882 35.0065 19.3642 35.0932C18.5869 34.0052 17.8656 32.8639 17.2669 31.5972C17.8989 30.0732 19.2323 29.2519 19.7149 27.5786C21.4043 27.5786 23.0923 27.5786 24.7829 27.5786" fill="white"/>
<path fill-rule="evenodd" clip-rule="evenodd" d="M42.2563 27.7532C43.0963 29.1266 43.6936 30.7426 44.7029 31.9479C44.0362 33.2039 42.9882 34.0773 42.4322 35.4426C40.6842 35.6159 38.9469 35.8012 37.0163 35.7906C36.3243 34.3266 35.5496 32.9479 34.5682 31.7733C35.3909 30.2079 36.7616 29.1906 37.5376 27.5786C39.2976 27.4506 40.6056 27.7732 42.2563 27.7532" fill="white"/>
<path fill-rule="evenodd" clip-rule="evenodd" d="M28.9749 37.0146C29.8309 36.3559 30.0082 35.0172 30.1976 33.6946C28.9162 33.1346 27.4976 36.4413 28.9749 37.0146ZM35.2669 36.3159C34.2496 37.9213 33.3322 39.6226 32.2962 41.2093C30.9389 41.3426 30.0762 40.9826 28.8002 41.0346C28.3896 39.3479 27.4482 38.1919 26.7042 36.8399C27.3589 35.4572 27.9722 34.0306 28.6269 32.6466C29.8936 32.3413 31.5949 32.4692 32.8202 32.1226C33.6122 33.5426 34.3482 35.0226 35.2669 36.3159Z" fill="white"/>
<path fill-rule="evenodd" clip-rule="evenodd" d="M82.0989 37.3652C82.5042 37.5452 82.6642 37.9665 83.3229 37.8892C83.4069 36.3999 83.8202 35.2399 84.0229 33.8692C82.5682 33.5905 82.0722 35.5945 82.0989 37.3652V37.3652ZM87.6922 41.3839C85.9456 41.3839 84.1962 41.3839 82.4495 41.3839C81.7882 39.6585 80.9082 38.1492 80.0029 36.6652C80.8415 34.9972 81.7815 33.4332 82.9735 32.1225C84.4575 32.0945 85.5815 32.4265 87.1682 32.2959C87.9549 32.7985 88.2562 33.6505 88.9162 34.5692C89.2335 35.0105 90.6389 36.2172 90.6629 36.6652C90.7309 37.9385 87.5576 39.6545 87.6922 41.3839Z" fill="white"/>
<path fill-rule="evenodd" clip-rule="evenodd" d="M16.0443 32.2959C16.6856 33.5786 17.3269 34.8599 17.9656 36.1413C17.4696 37.5079 16.5696 38.4733 15.8696 39.6359C13.9402 39.5866 11.7709 39.7746 10.1029 39.4612C9.74958 38.2412 8.9696 37.4493 8.5296 36.3159C9.12294 34.9853 9.92557 32.9386 10.8002 32.4719C12.5696 32.4333 14.5349 32.5946 16.0443 32.2959Z" fill="#F79814"/>
<path fill-rule="evenodd" clip-rule="evenodd" d="M53.0923 37.3652C53.5323 36.1305 52.7882 34.6665 51.5189 34.5692C51.3416 35.5412 51.5843 37.5039 53.0923 37.3652ZM55.1882 37.3652C54.1642 38.5532 53.4882 40.0905 52.5682 41.3839C50.3429 41.3372 48.3016 41.1065 45.9269 41.2092C45.3309 39.5919 44.4416 38.2679 43.8296 36.6652C44.4643 35.3185 45.3989 34.2732 46.2762 33.1705C48.2656 33.4919 50.6536 33.2692 52.5682 32.9959C53.8616 34.0319 54.2096 36.0119 55.1882 37.3652Z" fill="#F79814"/>
<path fill-rule="evenodd" clip-rule="evenodd" d="M25.3056 36.8398C25.9923 38.3078 26.3816 40.0745 27.2283 41.3838C26.4523 42.9385 25.2963 44.1105 24.6069 45.7532C22.9669 45.6278 21.7616 45.9372 20.2376 45.9278C18.7976 44.5145 17.9763 42.4812 17.0923 40.5092C18.0123 39.3905 18.5603 37.8985 19.5389 36.8398C21.4616 36.8398 23.3843 36.8398 25.3056 36.8398Z" fill="#F79814"/>
<path fill-rule="evenodd" clip-rule="evenodd" d="M6.60828 37.0146C6.72428 37.0146 6.84163 37.0146 6.95763 37.0146C9.22429 39.0546 8.97493 41.2226 7.13093 43.4813C6.36027 41.9226 7.04561 38.9066 6.60828 37.0146Z" fill="white"/>
<path fill-rule="evenodd" clip-rule="evenodd" d="M32.471 71.0919C32.5443 69.8425 31.6229 68.2612 30.1976 67.9452C29.7789 69.4999 30.8016 71.0519 32.471 71.0919ZM36.839 65.8479C38.5883 66.3506 40.107 65.1719 40.1603 63.4026C38.6576 62.5479 37.135 64.3652 36.839 65.8479ZM34.043 64.2759C34.727 63.8706 34.951 62.2092 34.5683 61.3052C33.215 60.3906 32.723 64.1332 34.043 64.2759ZM42.2563 37.0146C43.7096 38.8826 44.3123 41.5999 46.1016 43.1319C48.2536 42.6386 50.5896 43.2399 52.9163 43.1319C53.571 44.9252 54.271 46.6692 55.539 47.8492C57.4376 48.3959 60.139 48.1426 62.5283 48.1986C63.1123 49.5386 63.5923 50.9786 64.627 51.8692C63.895 53.0012 63.155 54.1279 62.3523 55.1892C59.8763 55.4812 57.7936 54.7066 56.239 55.3639C54.355 56.1599 54.3696 58.7279 53.2656 60.2572C51.8803 60.8759 50.3603 59.9959 49.0723 60.2572C47.6216 60.5505 44.8043 64.0692 44.879 65.6732C44.975 67.7946 47.0963 69.0479 47.675 71.0919C46.7336 72.4799 45.7363 73.8119 44.703 75.1106C42.2696 75.3532 40.283 74.4986 38.587 75.1106C37.4243 75.5306 35.1456 78.7852 35.091 80.3532C35.0243 82.3612 36.6723 84.3412 37.0163 85.9466C35.5683 88.3026 34.579 91.7679 36.491 94.3332C27.079 94.4239 18.3243 93.8599 8.8803 93.9839C7.8523 78.9332 7.89764 62.8106 6.95764 47.6746C8.30697 49.3546 9.56296 51.1279 10.9776 52.7426C12.819 52.8972 14.131 52.5185 15.5203 52.2185C16.5176 53.7839 17.211 55.6546 18.3163 57.1119C17.4096 58.9439 16.739 61.0092 16.219 63.2279C17.5163 64.9026 18.1563 67.2319 19.8883 68.4706C22.487 68.5066 24.9203 68.3759 27.2283 68.1212C28.5083 66.6625 28.9763 64.3932 30.0243 62.7039C29.3336 60.9132 27.2256 58.8132 27.2283 56.7612C27.231 55.1399 28.8323 54.0919 28.975 52.3932C30.5243 52.7585 32.6056 52.5065 34.043 52.2185C34.6563 50.3185 36.8229 48.2666 36.6643 46.1026C36.5443 44.4546 34.8416 43.7052 34.3936 42.0839C35.1523 40.3385 36.2816 38.9612 37.0163 37.1892C38.7323 37.1012 40.8203 37.3839 42.2563 37.0146" fill="#FBBF2A"/>
<path fill-rule="evenodd" clip-rule="evenodd" d="M62.8776 42.6066C63.3522 41.0813 62.1722 39.7039 61.1309 39.1119C60.4589 40.1626 61.7442 42.8079 62.8776 42.6066ZM62.3523 38.2386C62.4843 39.1999 63.0962 39.7546 63.5762 40.5093C63.8509 40.9399 64.9682 42.1692 64.9749 42.4332C64.9989 43.4399 62.1296 45.2226 61.6536 46.1026C59.6749 46.0853 56.8989 46.1852 55.7122 45.9279C55.1309 44.7612 54.5469 43.5972 53.9642 42.4332C54.6429 40.8972 55.7629 39.8026 56.2389 38.0639C58.3002 38.0959 60.5429 37.9506 62.3523 38.2386" fill="white"/>
<path fill-rule="evenodd" clip-rule="evenodd" d="M18.1403 46.4519C17.3029 47.8852 16.163 49.0145 15.3456 50.4705C10.447 51.7719 9.37095 47.8572 7.48029 45.5785C8.46962 44.2359 9.10294 42.5399 10.1029 41.2092C11.6816 41.4372 13.6989 41.2239 15.1709 41.5585C16.6736 42.6772 16.9909 44.9785 18.1403 46.4519" fill="white"/>
<path fill-rule="evenodd" clip-rule="evenodd" d="M33.3456 42.7825C33.7896 44.2599 34.547 45.4239 35.267 46.6279C34.3803 47.8372 33.619 49.1719 32.9936 50.6452C31.771 50.6452 30.5483 50.6452 29.3256 50.6452C28.3123 49.4439 27.1856 48.3599 26.3536 46.9759C26.911 45.2599 27.9296 44.0079 28.627 42.4332C30.0496 42.6985 31.939 42.4985 33.3456 42.7825" fill="#F79814"/>
<path fill-rule="evenodd" clip-rule="evenodd" d="M90.663 46.6279C89.8856 48.4119 88.2363 49.3239 87.5176 51.1706C86.3283 50.8733 84.531 50.9586 83.323 51.1706C82.447 49.8906 81.8043 48.3772 80.7029 47.3266C81.2416 45.8279 82.1096 44.6546 82.6243 43.1319C84.6816 43.0559 86.4363 43.2813 88.2163 43.4813C89.059 44.5039 89.9376 45.4906 90.663 46.6279" fill="white"/>
<path fill-rule="evenodd" clip-rule="evenodd" d="M73.0136 47.3265C72.427 48.7198 71.2776 49.5505 70.567 50.8212C68.8083 50.6932 67.5896 51.1065 65.8496 50.9945C64.831 49.9732 64.3096 48.4558 63.403 47.3265C64.1416 46.1438 65.0536 45.1318 65.8496 44.0052C67.5003 43.9852 68.8083 44.3079 70.567 44.1799C71.5963 45.0132 72.2123 46.2612 73.0136 47.3265Z" fill="white"/>
<path fill-rule="evenodd" clip-rule="evenodd" d="M19.0149 53.9652C19.6829 53.2666 20.0002 51.3759 19.5389 50.1226C17.8602 50.1812 17.7269 53.3932 19.0149 53.9652ZM27.5776 51.5199C26.8696 53.1986 25.8829 54.5999 25.3056 56.4119C23.3842 56.4119 21.4616 56.4119 19.5389 56.4119C19.3496 54.5613 16.9362 53.1906 16.9176 51.5199C16.9029 50.0546 18.6002 49.1279 19.3642 47.8493C21.2296 47.8493 23.0922 47.8493 24.9576 47.8493C26.0816 48.8213 26.8322 50.1679 27.5776 51.5199Z" fill="#F79814"/>
<path fill-rule="evenodd" clip-rule="evenodd" d="M79.3029 47.8492C80.3883 49.0386 80.9056 50.7905 81.9256 52.0425C81.1909 53.4652 79.8563 54.2852 79.1296 55.7146C77.5949 55.7332 76.0709 55.7425 74.7603 55.5385C73.9016 54.1852 73.2589 52.6132 72.3136 51.3452C72.9483 50.1732 73.8323 49.2519 74.4109 48.0252C76.0416 47.9639 77.9429 48.1772 79.3029 47.8492" fill="white"/>
<path fill-rule="evenodd" clip-rule="evenodd" d="M100.972 57.9852C101.635 57.1919 101.764 55.8639 101.847 54.4905C101.588 54.3999 101.407 54.2319 101.148 54.1399C100.382 54.6186 99.6042 57.5425 100.972 57.9852ZM105.518 52.5679C105.95 54.2906 107.13 55.2679 107.964 56.5865C107.344 57.5999 106.596 58.4825 106.216 59.7332C104.308 59.8052 102.082 59.5599 100.451 59.9066C99.7096 58.7826 98.9069 57.7225 98.1776 56.5865C99.0482 54.9545 100.07 53.4705 101.323 52.2185C102.907 52.1492 103.934 52.6372 105.518 52.5679" fill="white"/>
<path fill-rule="evenodd" clip-rule="evenodd" d="M70.9149 57.8106C71.9496 57.9119 72.1749 57.2052 72.1389 56.2372C71.1869 55.5172 70.4029 57.0666 70.9149 57.8106ZM65.6749 59.0332C66.6242 59.7492 70.0202 60.8159 70.0429 58.5092C69.5909 57.9119 68.2122 58.2426 67.2442 58.1599C65.3549 57.3732 66.4402 54.7506 66.5469 53.4412C64.2776 53.2799 64.6456 57.5132 65.6749 59.0332V59.0332ZM71.2669 52.5679C71.6762 54.0812 72.5256 55.1519 73.1869 56.4119C72.9696 57.9439 72.1669 58.8852 71.9642 60.4332C69.8669 60.4332 67.7709 60.4332 65.6749 60.4332C63.9936 57.5946 63.4149 54.8826 66.0216 52.5679C67.7709 52.5679 69.5189 52.5679 71.2669 52.5679Z" fill="white"/>
<path fill-rule="evenodd" clip-rule="evenodd" d="M88.0416 52.7426C88.3722 53.3586 88.8429 53.8372 89.2642 54.4906C89.4909 54.8386 90.4816 56.0452 90.4896 56.2372C90.5162 57.0799 88.1949 58.6092 88.3922 60.0826C86.6442 60.0826 84.8949 60.0826 83.1482 60.0826C82.7656 58.5999 81.9682 57.5346 81.4016 56.2372C82.0096 54.9239 82.8069 53.7986 83.4989 52.5679C84.7135 52.9266 86.5509 52.6626 88.0416 52.7426" fill="#F79814"/>
<path fill-rule="evenodd" clip-rule="evenodd" d="M115.302 56.4119C116.263 57.8932 118.138 59.2119 117.226 62.0039C116.239 64.2785 112.504 63.8065 109.71 64.2759C109.168 62.8972 108.527 61.6159 107.79 60.4332C108.434 59.1545 109.054 57.8519 109.887 56.7612C111.531 56.4852 113.499 56.5305 115.302 56.4119Z" fill="white"/>
<path fill-rule="evenodd" clip-rule="evenodd" d="M57.4616 61.1306C58.3389 60.6106 58.4763 59.3506 58.5083 57.9852C56.9203 57.8439 56.1829 60.4919 57.4616 61.1306ZM62.1789 57.1119C62.5696 58.6426 63.5443 59.5906 64.1016 60.9559C63.5496 62.3266 62.6203 63.3199 62.1789 64.7999C60.6963 64.4399 59.2549 64.9666 57.4616 64.7999C57.1869 63.2319 55.4216 62.2586 55.3629 60.7813C55.3043 59.3053 56.8589 58.3892 57.1109 56.7612C58.8029 56.8732 60.4203 57.0639 62.1789 57.1119" fill="white"/>
<path fill-rule="evenodd" clip-rule="evenodd" d="M96.9536 57.2865C97.4056 58.6999 98.3763 59.5932 99.0509 60.7812C98.6029 62.2559 97.6642 63.2399 97.3029 64.7999C95.7282 64.8572 93.8949 64.6532 92.5856 64.9759C91.8923 63.5719 91.0283 62.3385 90.3123 60.9559C90.6643 59.4439 91.5163 58.4306 92.0603 57.1119C93.4669 57.3959 95.2963 57.2559 96.9536 57.2865" fill="white"/>
<path fill-rule="evenodd" clip-rule="evenodd" d="M80.3522 57.2865C80.7709 58.8492 81.3416 60.2585 81.9256 61.6545C80.9989 62.7665 80.3829 64.1892 79.8283 65.6732C78.5336 65.2799 76.4309 65.6945 75.1109 65.3252C73.6256 62.7172 73.2776 59.9465 74.9362 57.2865C76.8042 57.5052 78.4642 57.4385 80.3522 57.2865Z" fill="#F79814"/>
<path fill-rule="evenodd" clip-rule="evenodd" d="M27.9269 63.2279C27.2029 64.1346 26.6176 65.1812 26.1803 66.3732C24.1283 66.3026 22.7589 66.9145 20.5869 66.7225C19.6829 65.4732 18.8096 64.1892 18.1403 62.7039C18.6296 61.0946 19.1523 59.5212 19.7149 57.9852C21.6603 58.0239 24.2589 57.9292 25.6549 57.9852C26.2296 59.9159 27.1456 61.5052 27.9269 63.2279" fill="#F79814"/>
<path fill-rule="evenodd" clip-rule="evenodd" d="M88.9163 61.6545C89.5909 63.3105 90.3016 64.9279 91.1869 66.3732C90.6016 68.0012 89.2963 68.9092 88.9163 70.7412C87.1669 70.7425 85.5736 70.5892 84.0229 70.3919C83.2483 69.1279 82.6136 67.7225 81.9256 66.3732C82.3109 64.7199 83.1296 63.4985 83.4989 61.8305C85.2536 62.3972 87.0136 61.5172 88.9163 61.6545" fill="white"/>
<path fill-rule="evenodd" clip-rule="evenodd" d="M106.042 61.6545C107.131 62.7785 107.662 64.4626 108.487 65.8479C107.603 67.0612 106.704 68.2612 105.866 69.5185C104.18 69.3919 103.31 69.5199 101.496 69.5185C100.796 68.0639 100.151 66.5559 99.2269 65.3252C99.6736 64.1426 100.067 62.9026 100.624 61.8306C102.352 62.2066 104.386 61.8812 106.042 61.6545Z" fill="white"/>
<path fill-rule="evenodd" clip-rule="evenodd" d="M53.4403 62.0039C53.843 63.6999 54.8616 64.7786 55.7123 66.0239C54.9203 67.1546 54.5176 68.6719 53.9643 70.0426C52.719 69.7039 51.0816 70.2399 49.4203 70.0426C48.5363 68.5399 47.7376 66.9519 46.8003 65.4999C47.5003 64.2199 48.531 63.2692 49.247 62.0039C50.6443 62.0039 52.043 62.0039 53.4403 62.0039" fill="white"/>
<path fill-rule="evenodd" clip-rule="evenodd" d="M76.3336 87.5172C77.0322 86.3238 75.7629 84.4639 75.4589 83.1492C75.2856 83.1492 75.1109 83.1492 74.9362 83.1492C74.1269 84.6665 74.8016 87.2292 76.3336 87.5172ZM71.7909 62.1785C72.3869 63.6799 73.0576 65.1052 73.7123 66.5479C75.6016 67.1052 77.8923 67.2612 80.3523 67.2465C80.9683 68.4372 81.5442 69.6665 82.0989 70.9172C81.6629 73.1132 79.2189 74.4825 79.3029 76.6838C79.3562 78.0265 82.4323 81.9305 83.8483 82.4505C85.3376 82.9985 87.2616 82.5719 88.9163 82.7999C89.6069 85.0785 90.9496 86.7065 92.4096 88.2172C94.5163 88.0918 96.1856 88.4039 98.1776 88.3919C98.6843 89.9252 99.1376 91.5092 99.9256 92.7612C99.5936 93.7692 98.8029 94.3185 98.8776 95.7305C85.4069 95.5719 71.7989 95.5479 58.8576 94.8572C56.4683 92.8812 56.2362 89.4479 58.3349 86.9932C60.4642 87.1225 62.8709 87.1919 64.2749 87.1692C64.8309 86.3332 65.2816 85.1785 65.6749 84.0239C66.7669 80.8052 66.3243 78.4852 64.4496 75.9852C65.2776 74.3652 66.1003 72.7412 66.7229 70.9172C65.9349 69.0238 64.9643 67.3172 63.9256 65.6732C64.3589 64.4772 64.8016 63.2879 65.3243 62.1785C67.4789 62.1785 69.6336 62.1785 71.7909 62.1785" fill="white"/>
<path fill-rule="evenodd" clip-rule="evenodd" d="M117.051 64.4505C116.987 74.4065 116.32 85.2732 116.002 95.5559C114.483 95.4359 113.376 95.7279 111.983 95.7305C112.163 94.1519 111.444 93.4732 111.11 92.4119C113.783 88.3505 110.675 84.4078 108.487 81.7505C109.232 79.7718 110.767 78.4412 110.41 76.1599C110.106 74.2065 107.93 72.7492 107.614 70.9172C108.338 69.1358 109.294 67.5879 110.06 65.8479C112.644 66.0999 116.232 66.4745 117.051 64.4505Z" fill="white"/>
<path fill-rule="evenodd" clip-rule="evenodd" d="M64.7989 71.0918C64.2403 72.5692 63.1856 73.5545 62.5283 74.9359C60.919 74.9132 59.5549 74.6478 57.8083 74.7612C57.1723 73.3612 56.3523 72.1425 55.7123 70.7412C55.9656 69.3052 56.7336 68.3838 56.9363 66.8972C58.9856 66.9092 61.031 66.9159 62.5283 66.3732C63.6043 67.6279 63.8456 69.7145 64.7989 71.0918Z" fill="white"/>
<path fill-rule="evenodd" clip-rule="evenodd" d="M92.0603 71.7905C93.5456 71.2012 94.4416 69.2119 94.5083 67.7719C92.7776 68.0945 91.7096 69.9625 92.0603 71.7905ZM97.8283 66.5479C98.5576 68.1492 99.3429 69.6932 100.274 71.0918C99.6869 72.6598 98.9763 74.1025 98.3523 75.6358C96.3323 75.4252 94.7683 75.9985 93.4603 75.4612C92.4336 75.0385 90.9109 72.8159 90.8376 71.6159C90.7256 69.7865 92.5976 67.9159 93.1096 66.5479C94.6829 66.5479 96.2549 66.5479 97.8283 66.5479" fill="white"/>
<path fill-rule="evenodd" clip-rule="evenodd" d="M56.4123 75.9852C55.9469 77.3265 55.2256 78.4105 54.6656 79.6545C52.7083 79.6785 50.9909 79.9412 48.8976 79.8292C48.0989 78.4145 47.1989 77.0999 46.6256 75.4612C47.5749 74.3145 48.2456 72.8852 49.2469 71.7905C51.0816 72.2225 52.4776 71.2479 53.6163 71.6159C55.2469 72.1439 55.0363 74.9345 56.4123 75.9852" fill="white"/>
<path fill-rule="evenodd" clip-rule="evenodd" d="M105.866 71.6159C107.083 73.1972 107.44 75.6345 108.838 77.0332C108.066 78.3572 107.036 79.4278 106.566 81.0518C104.822 80.9385 103.456 81.2052 101.847 81.2278C101.144 79.9492 100.59 78.5239 99.9256 77.2079C100.547 75.4412 101.074 73.5785 101.847 71.9652C103.152 71.8145 104.671 71.8759 105.866 71.6159Z" fill="white"/>
<path fill-rule="evenodd" clip-rule="evenodd" d="M89.4402 72.6639C89.9189 73.6412 90.3842 74.6319 91.0136 75.4612C90.2282 77.1812 89.5589 79.0145 89.0896 81.0519C87.6016 80.4332 86.2509 81.1306 85.0722 80.7026C83.3629 80.0839 82.7136 77.4479 81.2269 76.6839C81.8923 74.9612 82.9616 73.6412 83.8483 72.1399C85.5576 72.4679 87.2536 72.8119 89.4402 72.6639Z" fill="white"/>
<path fill-rule="evenodd" clip-rule="evenodd" d="M45.0523 76.5092C45.8963 77.9945 46.6376 79.5825 47.5003 81.0518C46.9736 82.3918 46.1083 83.3905 45.5763 84.7225C43.095 84.8158 40.9083 84.6159 38.587 84.5479C36.999 81.5239 37.3243 78.9065 39.4616 76.6838C41.515 76.8145 43.0256 76.4052 45.0523 76.5092" fill="white"/>
<path fill-rule="evenodd" clip-rule="evenodd" d="M63.2269 76.6839C63.9656 77.9239 64.1362 79.7332 64.9749 80.8772C64.3376 82.2786 63.7642 83.7452 63.4029 85.4212C62.0802 84.9372 59.6455 85.5666 58.3349 85.0719C55.5295 83.2172 56.2415 78.6599 58.3349 76.5092C59.9389 76.5946 61.4522 76.7692 63.2269 76.6839Z" fill="white"/>
<path fill-rule="evenodd" clip-rule="evenodd" d="M98.1776 77.3825C98.6603 79.3479 99.6123 80.8399 100.274 82.6252C99.2123 84.0092 98.3056 85.5492 96.9536 86.6452C95.6376 86.6785 94.6976 86.3385 93.2856 86.4692C92.2963 84.9519 91.4803 83.2639 90.3123 81.9265C91.3803 80.6612 91.5736 78.5265 92.4096 77.0332C94.4349 77.0479 96.3536 77.1679 98.1776 77.3825" fill="white"/>
<path fill-rule="evenodd" clip-rule="evenodd" d="M50.1216 88.7412C50.7029 87.7959 49.6883 87.1292 49.5963 86.2945C49.8923 85.3892 50.9536 84.4372 50.4696 83.3239C48.4442 84.0759 47.5589 87.8999 50.1216 88.7412ZM54.4883 81.9265C55.2083 83.2465 55.7696 84.7225 56.5856 85.9465C55.9656 87.2465 55.3762 88.5785 54.8389 89.9639C53.1389 89.5679 50.7123 89.8985 48.7229 89.7905C48.2083 88.5572 47.7029 87.3145 46.9749 86.2945C48.0056 84.9372 48.3749 82.9172 49.5963 81.7505C50.9589 82.0785 52.8589 81.8665 54.4883 81.9265" fill="white"/>
<path fill-rule="evenodd" clip-rule="evenodd" d="M107.439 82.7999C108.452 84.5839 109.298 86.5346 110.41 88.2172C109.991 89.4292 109.046 90.1146 108.838 91.5386C106.498 91.2572 103.78 91.3532 101.323 91.1879C100.438 90.0346 100.115 88.3186 99.2269 87.1692C100.338 85.7759 101.204 84.1386 102.371 82.7999C104.062 82.7999 105.75 82.7999 107.439 82.7999Z" fill="white"/>
<path fill-rule="evenodd" clip-rule="evenodd" d="M45.5763 86.8185C45.9803 88.2798 46.707 89.4172 47.1496 90.8385C46.4136 91.8505 45.7976 92.9812 45.4029 94.3332C43.1309 94.3332 40.859 94.3332 38.587 94.3332C38.2736 93.1319 37.6723 92.2198 37.1883 91.1878C38.043 89.7692 38.7576 87.2839 39.8109 86.6452C41.9256 86.5079 43.5243 86.8918 45.5763 86.8185" fill="white"/>
<path fill-rule="evenodd" clip-rule="evenodd" d="M55.1883 91.8865C55.2989 93.1159 56.0883 93.6665 56.2389 94.8572C53.5216 94.6025 50.9563 94.1959 47.8483 94.3332C48.1803 93.4399 48.4669 92.5066 48.7229 91.5386C50.7189 91.8146 53.1536 91.6492 55.1883 91.8865" fill="white"/>
<path fill-rule="evenodd" clip-rule="evenodd" d="M109.187 93.6346C109.404 94.3492 109.64 95.0439 109.887 95.7305C106.667 95.8012 104.418 95.7612 101.148 95.7305C101.356 94.7745 101.987 94.2412 102.196 93.2852C104.472 93.4559 106.924 93.4506 109.187 93.6346" fill="white"/>
</svg>
