<svg width="119" height="113" viewBox="0 0 119 113" fill="none" xmlns="http://www.w3.org/2000/svg">
<path fill-rule="evenodd" clip-rule="evenodd" d="M1.9894 95.8979C7.9894 100.658 16.2281 103.831 23.3387 107.997C24.7721 108.835 29.0334 112.077 30.6334 112.087C31.2521 112.093 32.8201 111.087 34.0134 110.487C40.0147 107.469 44.8561 104.231 50.3801 101.235C54.0934 99.2219 56.7027 97.0766 60.7001 95.8979C64.6881 98.4073 69.1214 101.19 74.2187 103.726C76.3987 104.81 79.0507 105.818 81.5147 107.283C82.8321 108.07 86.7187 111.365 88.4521 111.377C89.2841 111.382 91.0707 110.059 92.3667 109.419C93.9161 108.653 95.312 108.018 96.28 107.462C103.821 103.141 111.811 98.9419 117.987 93.7633C117.796 88.5726 118.76 83.6179 118.52 78.4633C118.417 76.2593 117.856 73.8859 117.629 71.3473C117.419 68.9739 117.844 65.7779 117.273 63.6966C116.649 61.4179 112.631 59.7113 110.691 58.5379C105.201 55.2153 101.544 52.8433 95.5694 49.9979C93.3121 48.9233 88.1454 47.9286 87.5627 46.0846C87.0374 44.4179 87.8067 41.1179 87.9201 38.9686C88.2147 33.3179 87.6201 29.7206 87.2081 24.7353C87.0094 22.3513 87.3787 19.3672 86.8521 17.4419C86.3721 15.6939 83.3734 14.2473 80.9814 12.8153C76.2654 9.99526 72.1681 7.44327 67.6374 5.16461C65.1347 3.90594 62.7694 3.0566 60.1654 1.96327C58.8307 1.40194 57.6241 0.279279 56.2521 0.0046128C55.8707 -0.0700539 54.2814 0.773915 53.7614 1.07258C53.2454 1.36991 52.2721 2.31525 51.6254 2.67392C46.4494 5.55658 38.6174 8.94726 33.1241 12.8153C31.4014 14.0273 28.4161 16.0699 27.9641 17.2633C27.3961 18.7633 27.5201 21.4286 27.4321 23.6673C27.1121 31.6433 27.7881 41.2073 27.4321 47.6846C20.6547 51.7806 13.1667 54.7566 6.43741 59.2486C4.61341 60.4659 1.20407 62.5486 0.56674 64.2299C-0.199927 66.2553 0.0334064 69.6819 0.0334064 72.2366C0.0334064 80.8606 1.44806 88.2846 1.9894 95.8979" fill="#422123"/>
<path fill-rule="evenodd" clip-rule="evenodd" d="M82.76 21.8887C82.8054 21.0207 83.3547 20.1513 83.1147 19.398C82.668 17.9873 78.484 16.11 77.244 15.3073C74.816 13.7287 72.7894 12.5727 70.8401 11.57C65.8227 8.99135 62.1201 6.96068 57.1414 5.16468C55.7947 4.67934 53.9027 6.39533 52.8721 6.94466C47.6267 9.72599 43.1574 12.354 38.2827 15.4847C37.0867 16.2527 33.4467 18.466 33.124 19.2207C32.4334 20.8313 32.92 24.026 32.7667 26.1593C32.2267 33.742 32.8107 40.0953 33.8347 46.6167C36.9054 47.6513 38.6467 49.1727 41.3081 50.71C44.7961 52.722 48.6174 54.1647 52.1587 56.402C53.9747 57.5514 55.736 59.4647 57.496 59.4273C59.1707 59.3913 62.5294 56.9633 64.2574 56.0473C71.1107 52.4113 77.9347 49.166 83.4721 44.838C83.7734 37.214 82.4147 28.4527 82.76 21.8887V21.8887ZM56.4294 2.85133C66.6694 7.32067 75.7494 12.9473 84.3614 19.0433C84.192 28.002 84.2134 38.1127 85.428 46.262C82.172 47.4807 79.38 49.534 76.356 51.2433C70.2467 54.694 63.8947 57.658 58.2094 61.562C49.2827 57.322 41.2667 52.1727 32.412 47.8633C31.176 40.6567 30.8107 32.6167 30.8107 23.49C30.8107 21.7767 30.5974 19.518 30.988 18.5073C31.5414 17.0847 35.0254 15.3353 36.86 14.2393C43.4747 10.2807 50.5147 6.69267 56.4294 2.85133Z" fill="white"/>
<path fill-rule="evenodd" clip-rule="evenodd" d="M78.8453 25.0912C78.8533 25.3352 78.7627 25.4819 78.6667 25.6246C78.3547 34.0179 77.1347 40.5992 72.7973 44.8379C69.728 47.8366 65.5187 48.8966 61.5893 51.2432C66.932 51.7819 71.8893 49.0419 74.7547 45.7286C77.4813 42.5739 79.3733 37.0752 79.7347 31.6725C79.888 29.3925 80.0533 26.6432 79.2027 25.0912C79.0827 25.0912 78.964 25.0912 78.8453 25.0912V25.0912ZM71.7293 18.6859C73.396 18.8579 73.6294 20.4632 75.1094 20.8219C75.312 19.0459 72.7053 16.4566 71.7293 18.6859ZM53.7613 12.8152C50.12 14.4326 46.3654 15.5539 43.4414 19.2206C40.336 23.1166 38.4934 29.5566 39.172 35.2312C39.328 36.5339 39.9907 38.3299 40.4173 39.8566C41.9787 45.4459 44.7293 48.1139 50.38 49.6419C48.8773 47.0992 46.3373 46.5659 44.332 44.3046C39.2627 38.5859 40.6213 26.1592 44.8653 20.6432C46.32 18.7552 48.3187 17.5125 50.0253 16.3739C51.892 15.1259 54.148 14.5392 55.8947 12.8152C55.112 12.0152 54.1387 12.6486 53.7613 12.8152V12.8152ZM61.7653 13.8832C62.296 15.0952 64.6027 14.6792 64.08 12.8152C63.3293 11.8752 61.544 12.3459 61.7653 13.8832ZM59.4533 12.2806C55.8493 11.5966 60.044 15.8912 59.4533 12.2806V12.2806ZM80.8027 20.9992C81.152 28.1806 80.8 36.0419 81.336 43.4152C73.5987 47.8339 65.468 51.8606 58.564 57.1139C50.9787 53.0179 43.4374 48.8752 35.9707 44.6619C35.3707 38.0819 35.5854 30.4086 35.436 24.3806C35.408 23.2166 34.8787 21.7352 35.2587 20.6432C35.6413 19.5406 39.0107 18.2579 40.596 17.2632C44.456 14.8419 47.4787 12.8046 51.2694 10.5019C53.3574 9.23524 55.748 7.93256 57.3187 7.1219C64.8907 12.0046 73.1294 16.2192 80.8027 20.9992" fill="#F79814"/>
<path fill-rule="evenodd" clip-rule="evenodd" d="M78.8454 54.802C75.056 57.03 71.5907 59.1807 67.9934 61.7393C66.5027 62.8007 63.6507 64.9047 63.368 65.6553C62.8214 67.102 63.312 70.2207 63.368 72.2367C63.4387 74.7833 63.5987 77.3087 63.724 78.998C63.9774 82.4167 63.7267 89.1833 64.9694 91.9847C65.9 94.0833 70.904 96.2033 73.1534 97.4993C76.272 99.298 79.1267 101.709 81.692 102.835C82.092 103.011 83.0814 103.133 83.6494 103.371C85.5374 104.162 86.98 106.225 88.452 106.218C90.256 106.206 93.4147 103.739 95.036 102.835C101.976 98.9727 107.871 95.782 113.539 91.0953C113.465 82.1527 113.509 73.0953 112.649 64.9433C104.34 59.966 96.3947 54.6273 87.0294 50.71C86.9214 50.7207 86.8187 50.7353 86.852 50.8873C83.2734 51.4447 81.72 53.11 78.8454 54.802V54.802ZM86.852 49.1087C97.092 53.5753 106.171 59.2033 114.783 65.298C114.577 74.2953 114.695 84.31 115.851 92.518C111.144 94.7313 107.087 97.9527 102.507 100.525C97.996 103.057 93.0734 105.001 88.6307 107.818C79.712 103.571 71.6347 98.4847 62.8334 94.118C61.2947 87.0167 61.6614 78.9273 61.2334 69.9247C61.1534 68.2287 60.708 66.2513 61.0547 65.1193C61.504 63.6607 65.1427 61.786 66.9267 60.6713C69.396 59.13 71.6427 58.2087 73.5094 57.114C78.5747 54.1433 82.488 51.6473 86.852 49.1087" fill="#F79814"/>
<path fill-rule="evenodd" clip-rule="evenodd" d="M36.5027 55.3352C34.816 54.3939 30.48 51.3606 29.032 52.3112C21.4814 57.2672 12.1547 61.3552 5.01469 66.1872C4.26269 74.9566 5.25471 84.0832 5.90404 92.5179C11.2307 96.4552 17.4574 99.6846 23.516 103.193C25.112 104.115 28.2614 106.263 29.9214 106.218C30.8414 106.191 32.0494 105.207 33.3014 104.615C41.5294 100.727 49.216 95.9686 56.0734 91.2726C56.1654 83.4459 56.1827 74.2646 55.184 66.5432C49.3734 63.1099 42.656 58.7672 36.5027 55.3352V55.3352ZM56.964 66.0086C56.7467 73.3752 56.9787 82.1192 57.3187 88.9592C57.3814 90.2232 57.92 91.5846 57.496 92.6952C56.8694 94.3446 50.5707 97.2992 48.9574 98.2112C42.816 101.679 36.488 104.71 30.6334 108.53C21.896 104.161 13.7347 99.2152 5.01469 94.8312C3.46402 87.5512 3.84002 79.8672 3.41335 70.8139C3.33202 69.1179 2.84804 67.0912 3.23471 65.8312C3.65337 64.4752 7.59471 62.3032 9.10538 61.3846C11.608 59.8632 13.84 58.9099 15.6894 57.8259C20.2494 55.1526 24.3387 52.3446 28.676 50.3539C30.468 49.5312 34.7214 52.3659 36.86 53.5552C43.5774 57.2952 51.0934 61.5632 56.964 66.0086" fill="white"/>
<path fill-rule="evenodd" clip-rule="evenodd" d="M107.667 71.7033C107.656 71.9313 107.437 71.9486 107.488 72.2366C107.315 72.5153 107.176 73.3273 107.133 73.8379C106.743 78.4873 106.427 82.5313 104.821 85.7579C103.62 88.1699 101.805 90.0086 100.373 91.9846C99.988 92.5153 99.0773 93.1286 99.3053 93.9419C104.811 92.0299 108.431 85.8432 108.912 78.6406C109.079 76.1579 109.197 72.9059 108.023 71.7033C107.904 71.7033 107.785 71.7033 107.667 71.7033V71.7033ZM75.644 72.4153C76.4853 72.5446 76.8133 72.1606 77.244 71.8806C77.244 71.4659 77.244 71.0513 77.244 70.6353C75.9573 69.3326 74.236 71.4633 75.644 72.4153V72.4153ZM105.532 69.2126C106.049 68.9593 106.324 68.4619 106.244 67.6099C104.932 65.4099 102.741 69.2206 105.532 69.2126ZM97.348 62.0953C98.3587 63.4086 100.124 64.8793 101.617 65.1193C101.645 62.9299 98.808 61.0539 97.348 62.0953V62.0953ZM80.4467 58.3593C77.0187 59.7633 74.3 61.8499 72.44 64.2299C69.5014 67.9953 66.9667 77.0392 68.3493 82.3779C70.4373 90.4419 78.2 96.4086 87.3853 96.9646C91.416 97.2099 94.2093 97.1806 95.5693 94.2966C90.8467 93.7913 86.7667 94.4179 82.9373 93.5859C80.108 92.9713 77.5813 91.1139 75.644 89.1379C73.1213 86.5633 70.684 83.7553 70.3067 80.0633C69.3654 70.8779 73.6133 62.7939 80.268 59.7833C82.8067 58.6353 85.7627 58.4019 88.6307 57.2926C86.28 55.8633 82.9293 57.3433 80.4467 58.3593V58.3593ZM110.869 66.5432C110.823 72.1379 110.853 77.8552 111.047 83.4446C111.096 84.8526 111.553 87.7459 111.225 88.7806C110.928 89.7179 107.576 91.1726 106.244 91.9846C104.235 93.2059 102.58 94.1139 101.084 95.0086C96.1387 97.9672 92.984 100.934 87.7414 103.014C81.8854 98.7672 74.1533 94.7406 67.6373 90.3833C66.0373 83.4433 65.9853 74.9566 66.0373 66.3659C72.7053 61.5299 80.352 56.7219 87.3853 52.8446C95.4893 57.1352 102.509 62.5086 110.869 66.5432Z" fill="#F79814"/>
<path fill-rule="evenodd" clip-rule="evenodd" d="M47.8894 87.5366C51.996 79.3219 49.036 66.4166 42.552 62.6299C42.376 62.6299 42.1974 62.6299 42.0187 62.6299C41.84 64.5166 43.7534 66.8006 44.5094 69.0339C45.1974 71.0619 46.2227 73.0366 46.6453 75.2619C47.528 79.9259 46.9774 85.3553 45.2214 88.0699C43.6374 90.5206 40.892 91.6859 38.6387 94.2966C42.9387 95.0206 46.396 90.5246 47.8894 87.5366ZM34.3694 61.3846C34.8534 61.7779 35.7974 61.4952 36.148 61.2072C36.148 60.9099 36.148 60.6126 36.148 60.3166C35.6307 59.1272 33.3427 60.0259 34.3694 61.3846V61.3846ZM53.5827 68.3233C52.9827 75.1899 53.8347 82.9833 53.5827 89.4939C46.0254 94.3299 37.3934 99.0406 30.6334 104.082C23.1974 99.8939 15.84 95.6273 8.21602 91.6286C7.89069 83.9593 7.50669 75.8859 7.14935 67.7886C9.79335 65.5099 13.4813 64.2766 16.5787 62.4512C16.7467 63.0726 16.0054 63.5286 15.6894 63.8752C11.1347 68.8406 6.8747 80.0726 11.5974 88.7806C14.532 94.1952 18.3094 97.0099 26.1854 97.8552C28.6427 98.1179 32.2147 98.8179 33.48 96.0766C31.668 95.5499 30.2254 96.8259 28.676 96.7872C27.3054 96.7539 24.4614 95.6832 22.8054 95.1859C16.9894 93.4406 12.4 88.8473 11.5974 81.6646C10.7547 74.1366 13.4907 67.8846 17.6467 63.6966C20.8813 60.4353 25.1307 58.4646 31.1667 58.3593C30.5814 56.6233 27.5854 57.1259 25.8294 57.4699C27.1894 56.3979 28.9387 55.7179 30.4547 54.8019C38.1587 59.3139 45.8254 63.8633 53.5827 68.3233" fill="#F79814"/>
<rect width="119" height="112" fill="#EFD6B3" fill-opacity="0.37"/>
</svg>
